<svg width="995" height="510" viewBox="0 0 995 510" fill="none" xmlns="http://www.w3.org/2000/svg">
<path d="M422.434 20.2073L397.434 5.77352V34.641L422.434 20.2073ZM14.4337 20.2073V22.7073H399.934V20.2073V17.7073H14.4337V20.2073Z" fill="#1B1F23"></path>
<path d="M994.434 20.2073L959.434 1.52588e-05V40.4145L994.434 20.2073ZM586.434 20.2073V23.7073H962.934V20.2073V16.7073H586.434V20.2073Z" fill="#1B1F23"></path>
<path d="M422.434 249.707L397.434 235.274V264.141L422.434 249.707ZM14.4337 249.707V252.207H24.7367V249.707V247.207H14.4337V249.707ZM38.1307 249.707V252.207H58.7367V249.707V247.207H38.1307V249.707ZM72.1307 249.707V252.207H92.7367V249.707V247.207H72.1307V249.707ZM106.131 249.707V252.207H126.737V249.707V247.207H106.131V249.707ZM140.131 249.707V252.207H160.737V249.707V247.207H140.131V249.707ZM174.131 249.707V252.207H194.737V249.707V247.207H174.131V249.707ZM208.131 249.707V252.207H228.737V249.707V247.207H208.131V249.707ZM242.131 249.707V252.207H262.737V249.707V247.207H242.131V249.707ZM276.131 249.707V252.207H296.737V249.707V247.207H276.131V249.707ZM310.131 249.707V252.207H330.737V249.707V247.207H310.131V249.707ZM344.131 249.707V252.207H364.737V249.707V247.207H344.131V249.707ZM378.131 249.707V252.207H398.737V249.707V247.207H378.131V249.707Z" fill="#1B1F23"></path>
<path d="M994.434 249.707L959.434 229.5V269.915L994.434 249.707ZM586.434 249.707V253.207H596.737V249.707V246.207H586.434V249.707ZM610.131 249.707V253.207H630.737V249.707V246.207H610.131V249.707ZM644.131 249.707V253.207H664.737V249.707V246.207H644.131V249.707ZM678.131 249.707V253.207H698.737V249.707V246.207H678.131V249.707ZM712.131 249.707V253.207H732.737V249.707V246.207H712.131V249.707ZM746.131 249.707V253.207H766.737V249.707V246.207H746.131V249.707ZM780.131 249.707V253.207H800.737V249.707V246.207H780.131V249.707ZM814.131 249.707V253.207H834.737V249.707V246.207H814.131V249.707ZM848.131 249.707V253.207H868.737V249.707V246.207H848.131V249.707ZM882.131 249.707V253.207H902.737V249.707V246.207H882.131V249.707ZM916.131 249.707V253.207H936.737V249.707V246.207H916.131V249.707ZM950.131 249.707V253.207H970.737V249.707V246.207H950.131V249.707Z" fill="#1B1F23"></path>
<path d="M18.9337 296.707V294.207H13.9337V296.707H16.4337H18.9337ZM16.4337 370.707H13.9337V373.207H16.4337V370.707ZM422.434 370.707L397.434 356.274V385.141L422.434 370.707ZM16.4337 296.707H13.9337V370.707H16.4337H18.9337V296.707H16.4337ZM16.4337 370.707V373.207H399.934V370.707V368.207H16.4337V370.707Z" fill="#1B1F23"></path>
<path d="M591.934 296.707V293.207H584.934V296.707H588.434H591.934ZM588.434 370.707H584.934V374.207H588.434V370.707ZM994.434 370.707L959.434 350.5V390.915L994.434 370.707ZM588.434 296.707H584.934V370.707H588.434H591.934V296.707H588.434ZM588.434 370.707V374.207H962.934V370.707V367.207H588.434V370.707Z" fill="#1B1F23"></path>
<path d="M-4.1008e-05 173.707L14.4337 188.141L28.8675 173.707L14.4337 159.274L-4.1008e-05 173.707ZM422.434 173.707L397.434 159.274V188.141L422.434 173.707ZM14.4337 173.707V176.207H399.934V173.707V171.207H14.4337V173.707Z" fill="#1B1F23"></path>
<path d="M566.226 173.707L586.434 193.915L606.641 173.707L586.434 153.5L566.226 173.707ZM994.434 173.707L959.434 153.5V193.915L994.434 173.707ZM586.434 173.707V177.207H962.934V173.707V170.207H586.434V173.707Z" fill="#1B1F23"></path>
<path d="M14.4337 99.7073L39.4337 114.141V85.2735L14.4337 99.7073ZM422.434 99.7073L397.434 85.2735V114.141L422.434 99.7073ZM36.9337 99.7073V102.207H399.934V99.7073V97.2073H36.9337V99.7073Z" fill="#1B1F23"></path>
<path d="M586.434 99.7073L621.434 119.915V79.5L586.434 99.7073ZM994.434 99.7073L959.434 79.5V119.915L994.434 99.7073ZM617.934 99.7073V103.207H962.934V99.7073V96.2073H617.934V99.7073Z" fill="#1B1F23"></path>
<path d="M16.4337 414.207H13.9337V419.207H16.4337V416.707V414.207ZM224.434 416.707H226.934V414.207H224.434V416.707ZM224.434 488.707H221.934V491.207H224.434V488.707ZM422.434 488.707L397.434 474.274V503.141L422.434 488.707ZM16.4337 416.707V419.207H224.434V416.707V414.207H16.4337V416.707ZM224.434 416.707H221.934V488.707H224.434H226.934V416.707H224.434ZM224.434 488.707V491.207H399.934V488.707V486.207H224.434V488.707Z" fill="#1B1F23"></path>
<path d="M588.434 413.207H584.934V420.207H588.434V416.707V413.207ZM796.434 416.707H799.934V413.207H796.434V416.707ZM796.434 488.707H792.934V492.207H796.434V488.707ZM994.434 488.707L959.434 468.5V508.915L994.434 488.707ZM588.434 416.707V420.207H796.434V416.707V413.207H588.434V416.707ZM796.434 416.707H792.934V488.707H796.434H799.934V416.707H796.434ZM796.434 488.707V492.207H962.934V488.707V485.207H796.434V488.707Z" fill="#1B1F23"></path>
</svg>