<svg width="1111" height="984" viewBox="0 0 1111 984" fill="none" xmlns="http://www.w3.org/2000/svg">
<rect x="15.5" y="259.5" width="517" height="252" fill="#F6F8FA" stroke="#1B1F23" stroke-width="5"></rect>
<rect x="15.5" y="259.5" width="517" height="80" fill="#52F756" stroke="#1B1F23" stroke-width="5"></rect>
<path d="M259.173 285.3H247.023V317H242.223V285.3H230.073V281.1H259.173V285.3ZM267.667 317.55C260.417 317.55 255.417 312 255.417 303.95C255.417 296.15 260.367 290.35 267.467 290.35C274.767 290.35 278.617 295.9 278.617 303.15V304.65H259.717C259.967 310.15 263.117 313.65 267.667 313.65C271.167 313.65 273.667 311.75 274.467 308.65L278.417 310.05C276.817 314.7 272.867 317.55 267.667 317.55ZM267.417 294.2C263.617 294.2 260.767 296.75 259.967 301.2H274.067C273.967 297.5 271.967 294.2 267.417 294.2ZM298.245 317L290.995 306.7L283.795 317H278.895L288.445 303.35L279.695 290.85H284.845L291.145 300L297.545 290.85H302.495L293.745 303.35L303.345 317H298.245ZM307.235 310.75V294.7H303.185V290.85H307.235V283.2H311.685V290.85H317.635V294.7H311.685V310.05C311.685 312.8 313.035 313.3 315.335 313.3C316.385 313.3 317.135 313.25 318.185 313V316.85C317.035 317.1 315.735 317.25 314.235 317.25C309.785 317.25 307.235 315.75 307.235 310.75Z" fill="#1B1F23"></path>
<rect x="99.5" y="580.5" width="365" height="73" fill="#F6F8FA" stroke="#1B1F23" stroke-width="5"></rect>
<path d="M268.205 604.47H257.27V633H252.95V604.47H242.015V600.69H268.205V604.47ZM275.85 633.495C269.325 633.495 264.825 628.5 264.825 621.255C264.825 614.235 269.28 609.015 275.67 609.015C282.24 609.015 285.705 614.01 285.705 620.535V621.885H268.695C268.92 626.835 271.755 629.985 275.85 629.985C279 629.985 281.25 628.275 281.97 625.485L285.525 626.745C284.085 630.93 280.53 633.495 275.85 633.495ZM275.625 612.48C272.205 612.48 269.64 614.775 268.92 618.78H281.61C281.52 615.45 279.72 612.48 275.625 612.48ZM303.37 633L296.845 623.73L290.365 633H285.955L294.55 620.715L286.675 609.465H291.31L296.98 617.7L302.74 609.465H307.195L299.32 620.715L307.96 633H303.37ZM311.462 627.375V612.93H307.817V609.465H311.462V602.58H315.467V609.465H320.822V612.93H315.467V626.745C315.467 629.22 316.682 629.67 318.752 629.67C319.697 629.67 320.372 629.625 321.317 629.4V632.865C320.282 633.09 319.112 633.225 317.762 633.225C313.757 633.225 311.462 631.875 311.462 627.375Z" fill="#1B1F23"></path>
<rect x="99.5" y="662.5" width="365" height="73" fill="#D9E4ED" stroke="#1B1F23" stroke-width="5"></rect>
<path d="M268.205 686.47H257.27V715H252.95V686.47H242.015V682.69H268.205V686.47ZM275.85 715.495C269.325 715.495 264.825 710.5 264.825 703.255C264.825 696.235 269.28 691.015 275.67 691.015C282.24 691.015 285.705 696.01 285.705 702.535V703.885H268.695C268.92 708.835 271.755 711.985 275.85 711.985C279 711.985 281.25 710.275 281.97 707.485L285.525 708.745C284.085 712.93 280.53 715.495 275.85 715.495ZM275.625 694.48C272.205 694.48 269.64 696.775 268.92 700.78H281.61C281.52 697.45 279.72 694.48 275.625 694.48ZM303.37 715L296.845 705.73L290.365 715H285.955L294.55 702.715L286.675 691.465H291.31L296.98 699.7L302.74 691.465H307.195L299.32 702.715L307.96 715H303.37ZM311.462 709.375V694.93H307.817V691.465H311.462V684.58H315.467V691.465H320.822V694.93H315.467V708.745C315.467 711.22 316.682 711.67 318.752 711.67C319.697 711.67 320.372 711.625 321.317 711.4V714.865C320.282 715.09 319.112 715.225 317.762 715.225C313.757 715.225 311.462 713.875 311.462 709.375Z" fill="#1B1F23"></path>
<rect x="99.5" y="744.5" width="365" height="73" fill="#BBC4CF" stroke="#1B1F23" stroke-width="5"></rect>
<path d="M268.205 768.47H257.27V797H252.95V768.47H242.015V764.69H268.205V768.47ZM275.85 797.495C269.325 797.495 264.825 792.5 264.825 785.255C264.825 778.235 269.28 773.015 275.67 773.015C282.24 773.015 285.705 778.01 285.705 784.535V785.885H268.695C268.92 790.835 271.755 793.985 275.85 793.985C279 793.985 281.25 792.275 281.97 789.485L285.525 790.745C284.085 794.93 280.53 797.495 275.85 797.495ZM275.625 776.48C272.205 776.48 269.64 778.775 268.92 782.78H281.61C281.52 779.45 279.72 776.48 275.625 776.48ZM303.37 797L296.845 787.73L290.365 797H285.955L294.55 784.715L286.675 773.465H291.31L296.98 781.7L302.74 773.465H307.195L299.32 784.715L307.96 797H303.37ZM311.462 791.375V776.93H307.817V773.465H311.462V766.58H315.467V773.465H320.822V776.93H315.467V790.745C315.467 793.22 316.682 793.67 318.752 793.67C319.697 793.67 320.372 793.625 321.317 793.4V796.865C320.282 797.09 319.112 797.225 317.762 797.225C313.757 797.225 311.462 795.875 311.462 791.375Z" fill="#1B1F23"></path>
<mask id="path-10-inside-1_3_98" fill="white">
<path d="M15 902L15 578L93 578L93 824L467 824L467 902L15 902Z"></path>
</mask>
<path d="M15 902L15 578L93 578L93 824L467 824L467 902L15 902Z" fill="#52F756"></path>
<path d="M15 902L9.99999 902L9.99999 907L15 907L15 902ZM15 578L15 573L10 573L10 578L15 578ZM93 578L98 578L98 573L93 573L93 578ZM93 824L88 824L88 829L93 829L93 824ZM467 824L472 824L472 819L467 819L467 824ZM467 902L467 907L472 907L472 902L467 902ZM15 902L20 902L20 578L15 578L10 578L9.99999 902L15 902ZM15 578L15 583L93 583L93 578L93 573L15 573L15 578ZM93 578L88 578L88 824L93 824L98 824L98 578L93 578ZM93 824L93 829L467 829L467 824L467 819L93 819L93 824ZM467 824L462 824L462 902L467 902L472 902L472 824L467 824ZM467 902L467 897L15 897L15 902L15 907L467 907L467 902Z" fill="#1B1F23" mask="url(#path-10-inside-1_3_98)"></path>
<path d="M227.205 850.47H216.27V879H211.95V850.47H201.015V846.69H227.205V850.47ZM234.85 879.495C228.325 879.495 223.825 874.5 223.825 867.255C223.825 860.235 228.28 855.015 234.67 855.015C241.24 855.015 244.705 860.01 244.705 866.535V867.885H227.695C227.92 872.835 230.755 875.985 234.85 875.985C238 875.985 240.25 874.275 240.97 871.485L244.525 872.745C243.085 876.93 239.53 879.495 234.85 879.495ZM234.625 858.48C231.205 858.48 228.64 860.775 227.92 864.78H240.61C240.52 861.45 238.72 858.48 234.625 858.48ZM262.37 879L255.845 869.73L249.365 879H244.955L253.55 866.715L245.675 855.465H250.31L255.98 863.7L261.74 855.465H266.195L258.32 866.715L266.96 879H262.37ZM270.462 873.375V858.93H266.817V855.465H270.462V848.58H274.467V855.465H279.822V858.93H274.467V872.745C274.467 875.22 275.682 875.67 277.752 875.67C278.697 875.67 279.372 875.625 280.317 875.4V878.865C279.282 879.09 278.112 879.225 276.762 879.225C272.757 879.225 270.462 877.875 270.462 873.375Z" fill="#1B1F23"></path>
<rect x="17.5" y="908.5" width="447" height="73" fill="#52F756" stroke="#1B1F23" stroke-width="5"></rect>
<path d="M227.292 932.47H216.357V961H212.037V932.47H201.102V928.69H227.292V932.47ZM234.937 961.495C228.412 961.495 223.912 956.5 223.912 949.255C223.912 942.235 228.367 937.015 234.757 937.015C241.327 937.015 244.792 942.01 244.792 948.535V949.885H227.782C228.007 954.835 230.842 957.985 234.937 957.985C238.087 957.985 240.337 956.275 241.057 953.485L244.612 954.745C243.172 958.93 239.617 961.495 234.937 961.495ZM234.712 940.48C231.292 940.48 228.727 942.775 228.007 946.78H240.697C240.607 943.45 238.807 940.48 234.712 940.48ZM262.457 961L255.932 951.73L249.452 961H245.042L253.637 948.715L245.762 937.465H250.397L256.067 945.7L261.827 937.465H266.282L258.407 948.715L267.047 961H262.457ZM270.548 955.375V940.93H266.903V937.465H270.548V930.58H274.553V937.465H279.908V940.93H274.553V954.745C274.553 957.22 275.768 957.67 277.838 957.67C278.783 957.67 279.458 957.625 280.403 957.4V960.865C279.368 961.09 278.198 961.225 276.848 961.225C272.843 961.225 270.548 959.875 270.548 955.375Z" fill="#1B1F23"></path>
<rect x="661.5" y="619.5" width="447" height="100" fill="#174BEB" stroke="#1B1F23" stroke-width="5"></rect>
<path d="M871.205 657.47H860.27V686H855.95V657.47H845.015V653.69H871.205V657.47ZM878.85 686.495C872.325 686.495 867.825 681.5 867.825 674.255C867.825 667.235 872.28 662.015 878.67 662.015C885.24 662.015 888.705 667.01 888.705 673.535V674.885H871.695C871.92 679.835 874.755 682.985 878.85 682.985C882 682.985 884.25 681.275 884.97 678.485L888.525 679.745C887.085 683.93 883.53 686.495 878.85 686.495ZM878.625 665.48C875.205 665.48 872.64 667.775 871.92 671.78H884.61C884.52 668.45 882.72 665.48 878.625 665.48ZM906.37 686L899.845 676.73L893.365 686H888.955L897.55 673.715L889.675 662.465H894.31L899.98 670.7L905.74 662.465H910.195L902.32 673.715L910.96 686H906.37ZM914.462 680.375V665.93H910.817V662.465H914.462V655.58H918.467V662.465H923.822V665.93H918.467V679.745C918.467 682.22 919.682 682.67 921.752 682.67C922.697 682.67 923.372 682.625 924.317 682.4V685.865C923.282 686.09 922.112 686.225 920.762 686.225C916.757 686.225 914.462 684.875 914.462 680.375Z" fill="#1B1F23"></path>
<rect x="661.5" y="729.5" width="447" height="100" fill="#FFD527" stroke="#1B1F23" stroke-width="5"></rect>
<path d="M871.205 767.47H860.27V796H855.95V767.47H845.015V763.69H871.205V767.47ZM878.85 796.495C872.325 796.495 867.825 791.5 867.825 784.255C867.825 777.235 872.28 772.015 878.67 772.015C885.24 772.015 888.705 777.01 888.705 783.535V784.885H871.695C871.92 789.835 874.755 792.985 878.85 792.985C882 792.985 884.25 791.275 884.97 788.485L888.525 789.745C887.085 793.93 883.53 796.495 878.85 796.495ZM878.625 775.48C875.205 775.48 872.64 777.775 871.92 781.78H884.61C884.52 778.45 882.72 775.48 878.625 775.48ZM906.37 796L899.845 786.73L893.365 796H888.955L897.55 783.715L889.675 772.465H894.31L899.98 780.7L905.74 772.465H910.195L902.32 783.715L910.96 796H906.37ZM914.462 790.375V775.93H910.817V772.465H914.462V765.58H918.467V772.465H923.822V775.93H918.467V789.745C918.467 792.22 919.682 792.67 921.752 792.67C922.697 792.67 923.372 792.625 924.317 792.4V795.865C923.282 796.09 922.112 796.225 920.762 796.225C916.757 796.225 914.462 794.875 914.462 790.375Z" fill="#1B1F23"></path>
<rect x="661.5" y="839.5" width="447" height="100" fill="#FF3333" stroke="#1B1F23" stroke-width="5"></rect>
<path d="M871.205 877.47H860.27V906H855.95V877.47H845.015V873.69H871.205V877.47ZM878.85 906.495C872.325 906.495 867.825 901.5 867.825 894.255C867.825 887.235 872.28 882.015 878.67 882.015C885.24 882.015 888.705 887.01 888.705 893.535V894.885H871.695C871.92 899.835 874.755 902.985 878.85 902.985C882 902.985 884.25 901.275 884.97 898.485L888.525 899.745C887.085 903.93 883.53 906.495 878.85 906.495ZM878.625 885.48C875.205 885.48 872.64 887.775 871.92 891.78H884.61C884.52 888.45 882.72 885.48 878.625 885.48ZM906.37 906L899.845 896.73L893.365 906H888.955L897.55 893.715L889.675 882.465H894.31L899.98 890.7L905.74 882.465H910.195L902.32 893.715L910.96 906H906.37ZM914.462 900.375V885.93H910.817V882.465H914.462V875.58H918.467V882.465H923.822V885.93H918.467V899.745C918.467 902.22 919.682 902.67 921.752 902.67C922.697 902.67 923.372 902.625 924.317 902.4V905.865C923.282 906.09 922.112 906.225 920.762 906.225C916.757 906.225 914.462 904.875 914.462 900.375Z" fill="#1B1F23"></path>
<path d="M452.566 699L467 684.566L481.434 699L467 713.434L452.566 699ZM565.365 699H567.865V701.5H565.365V699ZM565.365 670H562.865V667.5H565.365V670ZM659 670L634 684.434V655.566L659 670ZM467 699V696.5H565.365V699V701.5H467V699ZM565.365 699H562.865V670H565.365H567.865V699H565.365ZM565.365 670V667.5H636.5V670V672.5H565.365V670Z" fill="#1B1F23"></path>
<path d="M452.566 863L467 877.434L481.434 863L467 848.566L452.566 863ZM565.365 863H567.865V860.5H565.365V863ZM565.365 890H562.865V892.5H565.365V890ZM659 890L634 875.566V904.434L659 890ZM467 863V865.5H565.365V863V860.5H467V863ZM565.365 863H562.865V890H565.365H567.865V863H565.365ZM565.365 890V892.5H636.5V890V887.5H565.365V890Z" fill="#1B1F23"></path>
<path d="M452.566 781L467 795.434L481.434 781L467 766.566L452.566 781ZM659 781L634 766.566L634 795.434L659 781ZM467 781L467 783.5L636.5 783.5L636.5 781L636.5 778.5L467 778.5L467 781Z" fill="#1B1F23"></path>
<rect x="583.5" y="259.5" width="517" height="252" fill="#1B1F23" stroke="#BBC4CF" stroke-width="5"></rect>
<rect x="581" y="257" width="522" height="85" fill="#BBC4CF"></rect>
<path d="M827.173 285.3H815.023V317H810.223V285.3H798.073V281.1H827.173V285.3ZM835.667 317.55C828.417 317.55 823.417 312 823.417 303.95C823.417 296.15 828.367 290.35 835.467 290.35C842.767 290.35 846.617 295.9 846.617 303.15V304.65H827.717C827.967 310.15 831.117 313.65 835.667 313.65C839.167 313.65 841.667 311.75 842.467 308.65L846.417 310.05C844.817 314.7 840.867 317.55 835.667 317.55ZM835.417 294.2C831.617 294.2 828.767 296.75 827.967 301.2H842.067C841.967 297.5 839.967 294.2 835.417 294.2ZM866.245 317L858.995 306.7L851.795 317H846.895L856.445 303.35L847.695 290.85H852.845L859.145 300L865.545 290.85H870.495L861.745 303.35L871.345 317H866.245ZM875.235 310.75V294.7H871.185V290.85H875.235V283.2H879.685V290.85H885.635V294.7H879.685V310.05C879.685 312.8 881.035 313.3 883.335 313.3C884.385 313.3 885.135 313.25 886.185 313V316.85C885.035 317.1 883.735 317.25 882.235 317.25C877.785 317.25 875.235 315.75 875.235 310.75Z" fill="#1B1F23"></path>
<rect x="15.5" y="14.5" width="517" height="166" fill="#F6F8FA" stroke="#1B1F23" stroke-width="5"></rect>
<rect x="15.5" y="14.5" width="177" height="166" fill="#52F756" stroke="#1B1F23" stroke-width="5"></rect>
<rect x="2.5" y="2.5" width="61" height="61" fill="#F6F8FA" stroke="#1B1F23" stroke-width="5"></rect>
<path d="M88.1727 83.3H76.0227V115H71.2227V83.3H59.0727V79.1H88.1727V83.3ZM96.6668 115.55C89.4168 115.55 84.4168 110 84.4168 101.95C84.4168 94.15 89.3668 88.35 96.4668 88.35C103.767 88.35 107.617 93.9 107.617 101.15V102.65H88.7168C88.9668 108.15 92.1168 111.65 96.6668 111.65C100.167 111.65 102.667 109.75 103.467 106.65L107.417 108.05C105.817 112.7 101.867 115.55 96.6668 115.55ZM96.4168 92.2C92.6168 92.2 89.7668 94.75 88.9668 99.2H103.067C102.967 95.5 100.967 92.2 96.4168 92.2ZM127.245 115L119.995 104.7L112.795 115H107.895L117.445 101.35L108.695 88.85H113.845L120.145 98L126.545 88.85H131.495L122.745 101.35L132.345 115H127.245ZM136.235 108.75V92.7H132.185V88.85H136.235V81.2H140.685V88.85H146.635V92.7H140.685V108.05C140.685 110.8 142.035 111.3 144.335 111.3C145.385 111.3 146.135 111.25 147.185 111V114.85C146.035 115.1 144.735 115.25 143.235 115.25C138.785 115.25 136.235 113.75 136.235 108.75Z" fill="#1B1F23"></path>
<path d="M29.8404 15.1H35.1404L48.9904 51H44.1404L40.4904 41.55H24.3904L20.7904 51H15.9904L29.8404 15.1ZM32.3904 20.5L25.9904 37.35H38.8904L32.3904 20.5Z" fill="#1B1F23"></path>
<rect x="583.5" y="14.5" width="517" height="166" fill="#1B1F23" stroke="#BBC4CF" stroke-width="5"></rect>
<rect x="581" y="12" width="182" height="171" fill="#BBC4CF"></rect>
<rect x="570.5" y="2.5" width="61" height="61" fill="#1B1F23" stroke="#BBC4CF" stroke-width="5"></rect>
<path d="M656.173 83.3H644.023V115H639.223V83.3H627.073V79.1H656.173V83.3ZM664.667 115.55C657.417 115.55 652.417 110 652.417 101.95C652.417 94.15 657.367 88.35 664.467 88.35C671.767 88.35 675.617 93.9 675.617 101.15V102.65H656.717C656.967 108.15 660.117 111.65 664.667 111.65C668.167 111.65 670.667 109.75 671.467 106.65L675.417 108.05C673.817 112.7 669.867 115.55 664.667 115.55ZM664.417 92.2C660.617 92.2 657.767 94.75 656.967 99.2H671.067C670.967 95.5 668.967 92.2 664.417 92.2ZM695.245 115L687.995 104.7L680.795 115H675.895L685.445 101.35L676.695 88.85H681.845L688.145 98L694.545 88.85H699.495L690.745 101.35L700.345 115H695.245ZM704.235 108.75V92.7H700.185V88.85H704.235V81.2H708.685V88.85H714.635V92.7H708.685V108.05C708.685 110.8 710.035 111.3 712.335 111.3C713.385 111.3 714.135 111.25 715.185 111V114.85C714.035 115.1 712.735 115.25 711.235 115.25C706.785 115.25 704.235 113.75 704.235 108.75Z" fill="#1B1F23"></path>
<path d="M597.84 15.1H603.14L616.99 51H612.14L608.49 41.55H592.39L588.79 51H583.99L597.84 15.1ZM600.39 20.5L593.99 37.35H606.89L600.39 20.5Z" fill="#F6F8FA"></path>
</svg>