<svg width="1091" height="909" viewBox="0 0 1091 909" fill="none" xmlns="http://www.w3.org/2000/svg">
<rect width="341" height="171" fill="#1B1F23"></rect>
<path d="M157.205 72.47H146.27V101H141.95V72.47H131.015V68.69H157.205V72.47ZM164.85 101.495C158.325 101.495 153.825 96.5 153.825 89.255C153.825 82.235 158.28 77.015 164.67 77.015C171.24 77.015 174.705 82.01 174.705 88.535V89.885H157.695C157.92 94.835 160.755 97.985 164.85 97.985C168 97.985 170.25 96.275 170.97 93.485L174.525 94.745C173.085 98.93 169.53 101.495 164.85 101.495ZM164.625 80.48C161.205 80.48 158.64 82.775 157.92 86.78H170.61C170.52 83.45 168.72 80.48 164.625 80.48ZM192.37 101L185.845 91.73L179.365 101H174.955L183.55 88.715L175.675 77.465H180.31L185.98 85.7L191.74 77.465H196.195L188.32 88.715L196.96 101H192.37ZM200.462 95.375V80.93H196.817V77.465H200.462V70.58H204.467V77.465H209.822V80.93H204.467V94.745C204.467 97.22 205.682 97.67 207.752 97.67C208.697 97.67 209.372 97.625 210.317 97.4V100.865C209.282 101.09 208.112 101.225 206.762 101.225C202.757 101.225 200.462 99.875 200.462 95.375Z" fill="#F6F8FA"></path>
<rect y="528" width="341" height="171" fill="#1B1F23"></rect>
<path d="M157.205 600.47H146.27V629H141.95V600.47H131.015V596.69H157.205V600.47ZM164.85 629.495C158.325 629.495 153.825 624.5 153.825 617.255C153.825 610.235 158.28 605.015 164.67 605.015C171.24 605.015 174.705 610.01 174.705 616.535V617.885H157.695C157.92 622.835 160.755 625.985 164.85 625.985C168 625.985 170.25 624.275 170.97 621.485L174.525 622.745C173.085 626.93 169.53 629.495 164.85 629.495ZM164.625 608.48C161.205 608.48 158.64 610.775 157.92 614.78H170.61C170.52 611.45 168.72 608.48 164.625 608.48ZM192.37 629L185.845 619.73L179.365 629H174.955L183.55 616.715L175.675 605.465H180.31L185.98 613.7L191.74 605.465H196.195L188.32 616.715L196.96 629H192.37ZM200.462 623.375V608.93H196.817V605.465H200.462V598.58H204.467V605.465H209.822V608.93H204.467V622.745C204.467 625.22 205.682 625.67 207.752 625.67C208.697 625.67 209.372 625.625 210.317 625.4V628.865C209.282 629.09 208.112 629.225 206.762 629.225C202.757 629.225 200.462 627.875 200.462 623.375Z" fill="#F6F8FA"></path>
<path d="M249 540.925L176.425 613.5L249 686.075L243.075 692L170.5 619.425L97.9248 692L92 686.075L164.575 613.5L92 540.925L97.9248 535L170.5 607.575L243.075 535L249 540.925Z" fill="#FF3333"></path>
<rect x="371" width="341" height="171" fill="#BBC4CF"></rect>
<path d="M507.616 67.7812V70.75H497.851V74.8516H506.249V77.7031H497.851V82.1172C502.46 82.0977 505.527 81.9414 509.101 81.2578L509.452 84.2266C505.429 84.9688 502.109 85.0859 496.562 85.0859H494.296V67.7812H507.616ZM522.577 88.6016V100.32H518.905V91.5703H498.671V88.6016H522.577ZM522.577 65.3594V87H519.062V65.3594H522.577ZM515.702 66.0625V86.7656H512.187V77.4688H507.851V74.4219H512.187V66.0625H515.702ZM544.277 70.2812C544.277 75.9844 550.371 81.375 557.09 82.5859L555.371 85.6719C549.785 84.4609 544.629 80.7891 542.363 75.8672C540.059 80.75 534.922 84.4219 529.316 85.6719L527.676 82.5859C534.316 81.3359 540.371 75.9844 540.371 70.2812V67.625H544.277V70.2812ZM558.535 92.625V95.7109H526.504V92.625H558.535ZM588.673 83.9531V86.9219H564.298V68.2109H588.321V71.2188H568.048V75.9453H587.579V78.875H568.048V83.9531H588.673ZM592.305 92.8594V95.9062H560.274V92.8594H592.305Z" fill="#1B1F23"></path>
<rect x="371" y="528" width="341" height="171" fill="#BBC4CF"></rect>
<path d="M507.616 595.781V598.75H497.851V602.852H506.249V605.703H497.851V610.117C502.46 610.098 505.527 609.941 509.101 609.258L509.452 612.227C505.429 612.969 502.109 613.086 496.562 613.086H494.296V595.781H507.616ZM522.577 616.602V628.32H518.905V619.57H498.671V616.602H522.577ZM522.577 593.359V615H519.062V593.359H522.577ZM515.702 594.062V614.766H512.187V605.469H507.851V602.422H512.187V594.062H515.702ZM544.277 598.281C544.277 603.984 550.371 609.375 557.09 610.586L555.371 613.672C549.785 612.461 544.629 608.789 542.363 603.867C540.059 608.75 534.922 612.422 529.316 613.672L527.676 610.586C534.316 609.336 540.371 603.984 540.371 598.281V595.625H544.277V598.281ZM558.535 620.625V623.711H526.504V620.625H558.535ZM588.673 611.953V614.922H564.298V596.211H588.321V599.219H568.048V603.945H587.579V606.875H568.048V611.953H588.673ZM592.305 620.859V623.906H560.274V620.859H592.305Z" fill="#52F756"></path>
<path d="M620 540.925L547.425 613.5L620 686.075L614.075 692L541.5 619.425L468.925 692L463 686.075L535.575 613.5L463 540.925L468.925 535L541.5 607.575L614.075 535L620 540.925Z" fill="#FF3333"></path>
<rect x="742" width="341" height="171" fill="#52F756"></rect>
<path d="M890.248 68.51H893.488V101H889.168V77.24H881.383V74.045L884.848 73.82C888.673 73.55 889.933 72.245 890.248 68.51ZM897.633 97.445L907.173 89.525C911.583 85.88 915.003 82.775 915.003 78.545C915.003 74.585 912.438 71.885 908.478 71.885C904.608 71.885 901.953 74.855 901.953 78.545C901.953 79.715 902.223 80.93 902.673 82.055H898.623C898.128 80.66 897.903 79.58 897.903 78.32C897.903 72.56 902.628 68.195 908.568 68.195C915.093 68.195 919.233 72.335 919.233 78.275C919.233 83.765 915.453 87.545 910.818 91.28L903.528 97.22H919.863V101H897.633V97.445ZM933.083 101.495C926.918 101.495 922.013 98.12 920.978 91.685L925.163 90.785C925.793 95.285 928.988 97.895 933.038 97.895C937.133 97.895 939.968 95.555 939.968 91.73C939.968 87.905 936.863 86.015 932.768 86.015H929.303V82.37H932.813C936.548 82.37 939.068 80.48 939.068 77.24C939.068 73.91 936.773 71.84 933.083 71.84C929.213 71.84 926.513 74.405 925.793 78.455L921.923 77.69C922.778 72.29 926.963 68.195 933.173 68.195C939.473 68.195 943.118 71.885 943.118 77.015C943.118 80.525 940.868 83.225 938.123 84.125C941.363 85.025 944.153 87.5 944.153 91.955C944.153 97.265 939.788 101.495 933.083 101.495Z" fill="#1B1F23"></path>
<rect x="742" y="528" width="341" height="171" fill="#52F756"></rect>
<path d="M890.248 596.51H893.488V629H889.168V605.24H881.383V602.045L884.848 601.82C888.673 601.55 889.933 600.245 890.248 596.51ZM897.633 625.445L907.173 617.525C911.583 613.88 915.003 610.775 915.003 606.545C915.003 602.585 912.438 599.885 908.478 599.885C904.608 599.885 901.953 602.855 901.953 606.545C901.953 607.715 902.223 608.93 902.673 610.055H898.623C898.128 608.66 897.903 607.58 897.903 606.32C897.903 600.56 902.628 596.195 908.568 596.195C915.093 596.195 919.233 600.335 919.233 606.275C919.233 611.765 915.453 615.545 910.818 619.28L903.528 625.22H919.863V629H897.633V625.445ZM933.083 629.495C926.918 629.495 922.013 626.12 920.978 619.685L925.163 618.785C925.793 623.285 928.988 625.895 933.038 625.895C937.133 625.895 939.968 623.555 939.968 619.73C939.968 615.905 936.863 614.015 932.768 614.015H929.303V610.37H932.813C936.548 610.37 939.068 608.48 939.068 605.24C939.068 601.91 936.773 599.84 933.083 599.84C929.213 599.84 926.513 602.405 925.793 606.455L921.923 605.69C922.778 600.29 926.963 596.195 933.173 596.195C939.473 596.195 943.118 599.885 943.118 605.015C943.118 608.525 940.868 611.225 938.123 612.125C941.363 613.025 944.153 615.5 944.153 619.955C944.153 625.265 939.788 629.495 933.083 629.495Z" fill="#FFD527"></path>
<path d="M991 540.925L918.425 613.5L991 686.075L985.075 692L912.5 619.425L839.925 692L834 686.075L906.575 613.5L834 540.925L839.925 535L912.5 607.575L985.075 535L991 540.925Z" fill="#FF3333"></path>
<rect x="2.5" y="204.5" width="336" height="166" fill="#F6F8FA" stroke="#1B1F23" stroke-width="5"></rect>
<path d="M157.205 274.47H146.27V303H141.95V274.47H131.015V270.69H157.205V274.47ZM164.85 303.495C158.325 303.495 153.825 298.5 153.825 291.255C153.825 284.235 158.28 279.015 164.67 279.015C171.24 279.015 174.705 284.01 174.705 290.535V291.885H157.695C157.92 296.835 160.755 299.985 164.85 299.985C168 299.985 170.25 298.275 170.97 295.485L174.525 296.745C173.085 300.93 169.53 303.495 164.85 303.495ZM164.625 282.48C161.205 282.48 158.64 284.775 157.92 288.78H170.61C170.52 285.45 168.72 282.48 164.625 282.48ZM192.37 303L185.845 293.73L179.365 303H174.955L183.55 290.715L175.675 279.465H180.31L185.98 287.7L191.74 279.465H196.195L188.32 290.715L196.96 303H192.37ZM200.462 297.375V282.93H196.817V279.465H200.462V272.58H204.467V279.465H209.822V282.93H204.467V296.745C204.467 299.22 205.682 299.67 207.752 299.67C208.697 299.67 209.372 299.625 210.317 299.4V302.865C209.282 303.09 208.112 303.225 206.762 303.225C202.757 303.225 200.462 301.875 200.462 297.375Z" fill="#1B1F23"></path>
<rect x="2.5" y="732.5" width="336" height="166" fill="#F6F8FA" stroke="#DF3FFF" stroke-width="5"></rect>
<path d="M157.205 802.47H146.27V831H141.95V802.47H131.015V798.69H157.205V802.47ZM164.85 831.495C158.325 831.495 153.825 826.5 153.825 819.255C153.825 812.235 158.28 807.015 164.67 807.015C171.24 807.015 174.705 812.01 174.705 818.535V819.885H157.695C157.92 824.835 160.755 827.985 164.85 827.985C168 827.985 170.25 826.275 170.97 823.485L174.525 824.745C173.085 828.93 169.53 831.495 164.85 831.495ZM164.625 810.48C161.205 810.48 158.64 812.775 157.92 816.78H170.61C170.52 813.45 168.72 810.48 164.625 810.48ZM192.37 831L185.845 821.73L179.365 831H174.955L183.55 818.715L175.675 807.465H180.31L185.98 815.7L191.74 807.465H196.195L188.32 818.715L196.96 831H192.37ZM200.462 825.375V810.93H196.817V807.465H200.462V800.58H204.467V807.465H209.822V810.93H204.467V824.745C204.467 827.22 205.682 827.67 207.752 827.67C208.697 827.67 209.372 827.625 210.317 827.4V830.865C209.282 831.09 208.112 831.225 206.762 831.225C202.757 831.225 200.462 829.875 200.462 825.375Z" fill="#174BEB"></path>
<path d="M249 742.925L176.425 815.5L249 888.075L243.075 894L170.5 821.425L97.9248 894L92 888.075L164.575 815.5L92 742.925L97.9248 737L170.5 809.575L243.075 737L249 742.925Z" fill="#FF3333"></path>
<rect x="373.5" y="204.5" width="336" height="166" fill="#BBC4CF" stroke="#1B1F23" stroke-width="5"></rect>
<path d="M507.616 269.781V272.75H497.851V276.852H506.249V279.703H497.851V284.117C502.46 284.098 505.527 283.941 509.101 283.258L509.452 286.227C505.429 286.969 502.109 287.086 496.562 287.086H494.296V269.781H507.616ZM522.577 290.602V302.32H518.905V293.57H498.671V290.602H522.577ZM522.577 267.359V289H519.062V267.359H522.577ZM515.702 268.062V288.766H512.187V279.469H507.851V276.422H512.187V268.062H515.702ZM544.277 272.281C544.277 277.984 550.371 283.375 557.09 284.586L555.371 287.672C549.785 286.461 544.629 282.789 542.363 277.867C540.059 282.75 534.922 286.422 529.316 287.672L527.676 284.586C534.316 283.336 540.371 277.984 540.371 272.281V269.625H544.277V272.281ZM558.535 294.625V297.711H526.504V294.625H558.535ZM588.673 285.953V288.922H564.298V270.211H588.321V273.219H568.048V277.945H587.579V280.875H568.048V285.953H588.673ZM592.305 294.859V297.906H560.274V294.859H592.305Z" fill="#1B1F23"></path>
<g filter="url(#filter0_i_3_97)">
<rect x="373.5" y="732.5" width="336" height="166" fill="#BBC4CF" stroke="#00E1FF" stroke-width="5"></rect>
<path d="M507.616 797.781V800.75H497.851V804.852H506.249V807.703H497.851V812.117C502.46 812.098 505.527 811.941 509.101 811.258L509.452 814.227C505.429 814.969 502.109 815.086 496.562 815.086H494.296V797.781H507.616ZM522.577 818.602V830.32H518.905V821.57H498.671V818.602H522.577ZM522.577 795.359V817H519.062V795.359H522.577ZM515.702 796.062V816.766H512.187V807.469H507.851V804.422H512.187V796.062H515.702ZM544.277 800.281C544.277 805.984 550.371 811.375 557.09 812.586L555.371 815.672C549.785 814.461 544.629 810.789 542.363 805.867C540.059 810.75 534.922 814.422 529.316 815.672L527.676 812.586C534.316 811.336 540.371 805.984 540.371 800.281V797.625H544.277V800.281ZM558.535 822.625V825.711H526.504V822.625H558.535ZM588.673 813.953V816.922H564.298V798.211H588.321V801.219H568.048V805.945H587.579V808.875H568.048V813.953H588.673ZM592.305 822.859V825.906H560.274V822.859H592.305Z" fill="#FF3333"></path>
<path d="M620 742.925L547.425 815.5L620 888.075L614.075 894L541.5 821.425L468.925 894L463 888.075L535.575 815.5L463 742.925L468.925 737L541.5 809.575L614.075 737L620 742.925Z" fill="#FF3333"></path>
</g>
<rect x="744.5" y="204.5" width="336" height="166" fill="#52F756" stroke="#1B1F23" stroke-width="5"></rect>
<path d="M890.248 270.51H893.488V303H889.168V279.24H881.383V276.045L884.848 275.82C888.673 275.55 889.933 274.245 890.248 270.51ZM897.633 299.445L907.173 291.525C911.583 287.88 915.003 284.775 915.003 280.545C915.003 276.585 912.438 273.885 908.478 273.885C904.608 273.885 901.953 276.855 901.953 280.545C901.953 281.715 902.223 282.93 902.673 284.055H898.623C898.128 282.66 897.903 281.58 897.903 280.32C897.903 274.56 902.628 270.195 908.568 270.195C915.093 270.195 919.233 274.335 919.233 280.275C919.233 285.765 915.453 289.545 910.818 293.28L903.528 299.22H919.863V303H897.633V299.445ZM933.083 303.495C926.918 303.495 922.013 300.12 920.978 293.685L925.163 292.785C925.793 297.285 928.988 299.895 933.038 299.895C937.133 299.895 939.968 297.555 939.968 293.73C939.968 289.905 936.863 288.015 932.768 288.015H929.303V284.37H932.813C936.548 284.37 939.068 282.48 939.068 279.24C939.068 275.91 936.773 273.84 933.083 273.84C929.213 273.84 926.513 276.405 925.793 280.455L921.923 279.69C922.778 274.29 926.963 270.195 933.173 270.195C939.473 270.195 943.118 273.885 943.118 279.015C943.118 282.525 940.868 285.225 938.123 286.125C941.363 287.025 944.153 289.5 944.153 293.955C944.153 299.265 939.788 303.495 933.083 303.495Z" fill="#1B1F23"></path>
<g filter="url(#filter1_d_3_97)">
<rect x="744.5" y="732.5" width="336" height="166" rx="27.5" fill="#52F756" stroke="#FFD527" stroke-width="5"></rect>
<path d="M890.248 798.51H893.488V831H889.168V807.24H881.383V804.045L884.848 803.82C888.673 803.55 889.933 802.245 890.248 798.51ZM897.633 827.445L907.173 819.525C911.583 815.88 915.003 812.775 915.003 808.545C915.003 804.585 912.438 801.885 908.478 801.885C904.608 801.885 901.953 804.855 901.953 808.545C901.953 809.715 902.223 810.93 902.673 812.055H898.623C898.128 810.66 897.903 809.58 897.903 808.32C897.903 802.56 902.628 798.195 908.568 798.195C915.093 798.195 919.233 802.335 919.233 808.275C919.233 813.765 915.453 817.545 910.818 821.28L903.528 827.22H919.863V831H897.633V827.445ZM933.083 831.495C926.918 831.495 922.013 828.12 920.978 821.685L925.163 820.785C925.793 825.285 928.988 827.895 933.038 827.895C937.133 827.895 939.968 825.555 939.968 821.73C939.968 817.905 936.863 816.015 932.768 816.015H929.303V812.37H932.813C936.548 812.37 939.068 810.48 939.068 807.24C939.068 803.91 936.773 801.84 933.083 801.84C929.213 801.84 926.513 804.405 925.793 808.455L921.923 807.69C922.778 802.29 926.963 798.195 933.173 798.195C939.473 798.195 943.118 801.885 943.118 807.015C943.118 810.525 940.868 813.225 938.123 814.125C941.363 815.025 944.153 817.5 944.153 821.955C944.153 827.265 939.788 831.495 933.083 831.495Z" fill="#DF3FFF"></path>
<path d="M991 742.925L918.425 815.5L991 888.075L985.075 894L912.5 821.425L839.925 894L834 888.075L906.575 815.5L834 742.925L839.925 737L912.5 809.575L985.075 737L991 742.925Z" fill="#FF3333"></path>
</g>
<defs>
<filter id="filter0_i_3_97" x="367" y="726" width="345" height="175" filterUnits="userSpaceOnUse" color-interpolation-filters="sRGB">
<feFlood flood-opacity="0" result="BackgroundImageFix"></feFlood>
<feBlend mode="normal" in="SourceGraphic" in2="BackgroundImageFix" result="shape"></feBlend>
<feColorMatrix in="SourceAlpha" type="matrix" values="0 0 0 0 0 0 0 0 0 0 0 0 0 0 0 0 0 0 127 0" result="hardAlpha"></feColorMatrix>
<feOffset dx="-10" dy="-10"></feOffset>
<feGaussianBlur stdDeviation="2"></feGaussianBlur>
<feComposite in2="hardAlpha" operator="arithmetic" k2="-1" k3="1"></feComposite>
<feColorMatrix type="matrix" values="0 0 0 0 0 0 0 0 0 0 0 0 0 0 0 0 0 0 0.79 0"></feColorMatrix>
<feBlend mode="normal" in2="shape" result="effect1_innerShadow_3_97"></feBlend>
</filter>
<filter id="filter1_d_3_97" x="742" y="730" width="349" height="179" filterUnits="userSpaceOnUse" color-interpolation-filters="sRGB">
<feFlood flood-opacity="0" result="BackgroundImageFix"></feFlood>
<feColorMatrix in="SourceAlpha" type="matrix" values="0 0 0 0 0 0 0 0 0 0 0 0 0 0 0 0 0 0 127 0" result="hardAlpha"></feColorMatrix>
<feOffset dx="4" dy="4"></feOffset>
<feGaussianBlur stdDeviation="2"></feGaussianBlur>
<feComposite in2="hardAlpha" operator="out"></feComposite>
<feColorMatrix type="matrix" values="0 0 0 0 0 0 0 0 0 0 0 0 0 0 0 0 0 0 0.25 0"></feColorMatrix>
<feBlend mode="normal" in2="BackgroundImageFix" result="effect1_dropShadow_3_97"></feBlend>
<feBlend mode="normal" in="SourceGraphic" in2="effect1_dropShadow_3_97" result="shape"></feBlend>
</filter>
</defs>
</svg>