<svg width="83" height="69" viewBox="0 0 83 69" fill="none" xmlns="http://www.w3.org/2000/svg">
<path d="M70.1221 46.0215L68 43.8994L76.4004 35.5L62 35.5L62 32.5L76.3789 32.5L68 24.1221L70.1221 22L80.0215 31.8994L80.0205 31.9004L82.1309 34.0117L70.1221 46.0215Z" fill="#F6F8FA"></path>
<path d="M53.0215 12.0088L50.8994 14.1309L42.5 5.73047V21.1309L39.5 21.1309V5.75195L31.1221 14.1309L29 12.0088L38.8994 2.10937L38.9004 2.11035L41.0117 0L53.0215 12.0088Z" fill="#F6F8FA"></path>
<path d="M12.0088 22L14.1309 24.1221L5.73047 32.5215L20.1309 32.5215L20.1309 35.5215L5.75195 35.5215L14.1309 43.8994L12.0088 46.0215L2.10938 36.1221L2.11035 36.1211L1.57515e-06 34.0098L12.0088 22Z" fill="#F6F8FA"></path>
<path d="M28.9785 56.0127L31.1006 53.8906L39.5 62.291L39.5 45.8906L42.5 45.8906L42.5 62.2695L50.8779 53.8906L53 56.0127L43.1006 65.9121L43.0996 65.9111L40.9883 68.0215L28.9785 56.0127Z" fill="#F6F8FA"></path>
<rect x="19.5" y="21.5" width="43" height="24" rx="12" stroke="#52F756" stroke-width="3"></rect>
<path d="M42.1799 32.655V28.7219C42.5653 28.8275 42.883 29.0077 43.1332 29.25C43.3834 29.4985 43.5659 29.7968 43.6809 30.151L45.7634 29.3556C45.4929 28.61 45.0331 28.0197 44.3773 27.5786C43.7214 27.1374 42.9912 26.8454 42.1799 26.7025V25H40.449V26.6466C39.3671 26.7522 38.4544 27.1188 37.7039 27.7339C36.9533 28.3553 36.5747 29.1754 36.5747 30.2069C36.5747 31.1637 36.9669 31.9591 37.7579 32.5991C38.549 33.239 39.4415 33.7485 40.449 34.14V38.3341C39.8337 38.1601 39.3131 37.8556 38.8871 37.4331C38.4611 37.0106 38.1771 36.5135 38.0216 35.9481L36 36.7434C36.311 37.7376 36.8452 38.5515 37.616 39.1853C38.3867 39.8253 39.3333 40.2105 40.449 40.3534V42H42.1258V40.2975C43.2076 40.1546 44.1204 39.7507 44.8709 39.0735C45.6214 38.4024 46 37.5325 46 36.47C46 35.5504 45.6146 34.78 44.8438 34.1586C44.073 33.5373 43.1873 33.034 42.1866 32.6425L42.1799 32.655ZM40.449 31.9653C40.023 31.7913 39.6376 31.5738 39.2928 31.3253C38.9479 31.0768 38.7721 30.7039 38.7721 30.2069C38.7721 29.7098 38.9479 29.3494 39.2928 29.1195C39.6376 28.8896 40.023 28.7405 40.449 28.6659V31.9591V31.9653ZM43.336 37.7314C43.025 37.9613 42.6396 38.1477 42.1799 38.2906V34.7862C42.6058 34.9602 42.9777 35.1776 43.309 35.4262C43.6335 35.6747 43.8026 36.0475 43.8026 36.5446C43.8026 37.11 43.6471 37.5077 43.3428 37.7376L43.336 37.7314Z" fill="#F6F8FA"></path>
</svg>