<svg width="85" height="88" viewBox="0 0 85 88" fill="none" xmlns="http://www.w3.org/2000/svg">
<path d="M33.4273 63.2681C30.7494 62.1135 28.4199 60.5466 26.4387 58.5674C24.4574 56.5883 22.8891 54.2607 21.7337 51.5849C20.5779 48.9094 20 46.0505 20 43.0079C20 39.9658 20.5773 37.1056 21.7319 34.4273C22.8865 31.7494 24.4534 29.4199 26.4326 27.4387C28.4117 25.4574 30.7393 23.8891 33.4151 22.7337C36.0906 21.5779 38.9495 21 41.9921 21C45.0342 21 47.8944 21.5773 50.5727 22.7319C53.2506 23.8865 55.5801 25.4534 57.5613 27.4326C59.5426 29.4117 61.1109 31.7393 62.2663 34.4151C63.4221 37.0906 64 39.9495 64 42.9921C64 46.0342 63.4227 48.8944 62.2681 51.5727C61.1135 54.2506 59.5466 56.5801 57.5674 58.5613C55.5883 60.5426 53.2607 62.1109 50.5849 63.2663C47.9094 64.4221 45.0505 65 42.0079 65C38.9658 65 36.1056 64.4227 33.4273 63.2681ZM39.5556 62.4333V57.6667C38.2111 57.6667 37.0602 57.188 36.1028 56.2306C35.1454 55.2731 34.6667 54.1222 34.6667 52.7778V50.3333L22.9333 38.6C22.8111 39.3333 22.6991 40.0667 22.5972 40.8C22.4954 41.5333 22.4444 42.2667 22.4444 43C22.4444 47.9296 24.0639 52.2481 27.3028 55.9556C30.5417 59.663 34.6259 61.8222 39.5556 62.4333ZM56.4222 56.2C58.0926 54.3667 59.3657 52.3194 60.2417 50.0583C61.1176 47.7972 61.5556 45.4385 61.5556 42.9823C61.5556 38.9705 60.4531 35.3067 58.2482 31.9908C56.0437 28.6749 53.0721 26.2837 49.3333 24.817V25.8889C49.3333 27.2333 48.8546 28.3843 47.8972 29.3417C46.9398 30.2991 45.7889 30.7778 44.4444 30.7778H39.5556V35.6667C39.5556 36.3593 39.3213 36.9398 38.8528 37.4083C38.3843 37.8769 37.8037 38.1111 37.1111 38.1111H32.2222V43H46.8889C47.5815 43 48.162 43.2343 48.6306 43.7028C49.0991 44.1713 49.3333 44.7519 49.3333 45.4444V52.7778H51.7778C52.837 52.7778 53.7944 53.0935 54.65 53.725C55.5056 54.3565 56.0963 55.1815 56.4222 56.2Z" fill="#52F756"></path>
<path d="M72.1221 55.0215L70 52.8994L78.4004 44.5L64 44.5L64 41.5L78.3789 41.5L70 33.1221L72.1221 31L82.0215 40.8994L82.0205 40.9004L84.1309 43.0117L72.1221 55.0215Z" fill="#F6F8FA"></path>
<path d="M54.043 12.0088L51.9209 14.1309L43.5215 5.73047V21.1309L40.5215 21.1309V5.75195L32.1436 14.1309L30.0215 12.0088L39.9209 2.10937L39.9219 2.11035L42.0332 0L54.043 12.0088Z" fill="#F6F8FA"></path>
<path d="M12.0088 31L14.1309 33.1221L5.73047 41.5215L20.1309 41.5215L20.1309 44.5215L5.75195 44.5215L14.1309 52.8994L12.0088 55.0215L2.10938 45.1221L2.11035 45.1211L1.57515e-06 43.0098L12.0088 31Z" fill="#F6F8FA"></path>
<path d="M30 75.1221L32.1221 73L40.5215 81.4004L40.5215 65L43.5215 65L43.5215 81.3789L51.8994 73L54.0215 75.1221L44.1221 85.0215L44.1211 85.0205L42.0098 87.1309L30 75.1221Z" fill="#F6F8FA"></path>
<circle cx="42" cy="43" r="20.5" stroke="#52F756" stroke-width="3"></circle>
</svg>