<svg width="89" height="89" viewBox="0 0 89 89" fill="none" xmlns="http://www.w3.org/2000/svg">
<mask id="path-1-inside-1_139_483" fill="white">
<path d="M20 20H80V80H20V20Z"></path>
</mask>
<path d="M80 80V83H83V80H80ZM80 20H77V80H80H83V20H80ZM80 80V77H20V80V83H80V80Z" fill="#F6F8FA" mask="url(#path-1-inside-1_139_483)"></path>
<path d="M70 70H10V10H70V70ZM13 67H67V13H13V67Z" fill="#F6F8FA"></path>
<path fill-rule="evenodd" clip-rule="evenodd" d="M42.6917 22C43.509 22 44.1721 22.6631 44.1721 23.4805V27.3281C44.1723 27.9599 44.5772 28.514 45.1555 28.7686C46.1847 29.2213 47.1429 29.8064 48.009 30.501C48.5211 30.9116 49.2325 31.0047 49.801 30.6768L53.22 28.7041C53.9277 28.2958 54.8328 28.5376 55.2415 29.2451L57.5559 33.2549C57.9644 33.9628 57.7218 34.8678 57.0139 35.2764L53.4719 37.3193C52.9177 37.6392 52.6411 38.279 52.72 38.9141C52.7845 39.4337 52.8176 39.963 52.8176 40.5C52.8176 41.0368 52.7842 41.5665 52.72 42.0859C52.6416 42.7207 52.919 43.3589 53.4729 43.6787L57.0139 45.7246C57.7218 46.1333 57.9646 47.0382 57.5559 47.7461L55.2415 51.7549C54.8327 52.4628 53.9268 52.7047 53.219 52.2959L49.802 50.3232C49.2333 49.9949 48.5213 50.0871 48.009 50.498C47.1428 51.1929 46.1849 51.7786 45.1555 52.2314C44.5772 52.486 44.1722 53.04 44.1721 53.6719V57.5205C44.1721 58.3378 43.509 59 42.6917 59H38.0618C37.2446 58.9998 36.5823 58.3377 36.5823 57.5205V53.9688C36.5822 53.3036 36.1347 52.7288 35.512 52.4951C34.346 52.0576 33.2613 51.4543 32.2854 50.7148C31.775 50.3282 31.0822 50.2483 30.5276 50.5684L27.5344 52.2969C26.8266 52.7053 25.9216 52.4626 25.5129 51.7549L23.1985 47.7461C22.7899 47.0384 23.032 46.1335 23.7395 45.7246L26.6028 44.0703C27.1708 43.7421 27.4463 43.0802 27.3479 42.4316C27.2523 41.8018 27.2024 41.1565 27.2024 40.5C27.2024 39.8431 27.2523 39.1976 27.3479 38.5674C27.4461 37.9186 27.1701 37.2568 26.6018 36.9287L23.7405 35.2764C23.0325 34.8677 22.7898 33.9628 23.1985 33.2549L25.5129 29.2461C25.9216 28.5384 26.8266 28.2957 27.5344 28.7041L30.5276 30.4316C31.0821 30.7516 31.775 30.6717 32.2854 30.2852C33.2613 29.546 34.3461 28.9432 35.512 28.5059C36.1347 28.2723 36.5822 27.6973 36.5823 27.0322V23.4805C36.5823 22.6632 37.2446 22.0002 38.0618 22H42.6917ZM40.1018 32.4365C35.6483 32.4366 32.0376 36.0466 32.0374 40.5C32.0374 44.9537 35.6482 48.5644 40.1018 48.5645C44.5555 48.5645 48.1663 44.9537 48.1663 40.5C48.166 36.0465 44.5554 32.4365 40.1018 32.4365Z" fill="#52F756"></path>
</svg>