<svg width="82" height="81" viewBox="0 0 82 81" fill="none" xmlns="http://www.w3.org/2000/svg">
<path d="M5.82607 37.0979C4.92872 41.0145 4.79227 45.1731 5.55724 49.3766C7.80602 61.7331 17.1947 70.9896 28.6944 73.6686L29.2753 76.8604C16.0763 74.3192 5.15701 63.9325 2.60572 49.9138L2.46216 49.0594C1.7077 44.2208 2.03356 39.4515 3.26186 35.0016L5.82607 37.0979ZM68.6192 37.9005L68.6324 37.9785L68.6053 37.8296C68.6096 37.8532 68.6149 37.8768 68.6192 37.9005Z" fill="#F6F8FA"></path>
<path d="M45.7101 73.6211C49.5244 72.3579 53.1512 70.3186 56.3492 67.4852C65.7495 59.1563 68.7975 46.3289 65.1265 35.1064L67.5547 32.955C72.2245 45.5591 69.0036 60.2812 58.3387 69.7306L57.6826 70.2963C53.9361 73.45 49.6889 75.6439 45.2469 76.9006L45.7101 73.6211Z" fill="#F6F8FA"></path>
<path d="M58.0297 21.1016C55.1851 18.2638 51.7317 15.9427 47.7624 14.362C36.0943 9.71563 23.2683 12.7669 14.8984 21.0952L11.8835 19.8947C21.0377 10.0524 35.6343 6.30334 48.8723 11.5748L49.6727 11.9062C54.1749 13.8326 58.0456 16.6382 61.1667 20.0394L58.0297 21.1016Z" fill="#52F756"></path>
<path d="M29.7241 77.7321L26.9522 67.387" stroke="#F6F8FA" stroke-width="3"></path>
<path d="M30.3899 75.7639L20.0448 78.5359" stroke="#F6F8FA" stroke-width="3"></path>
<path d="M66.9744 30.7535L61.6194 40.0287" stroke="#F6F8FA" stroke-width="3"></path>
<path d="M65.1121 31.6744L74.3872 37.0294" stroke="#F6F8FA" stroke-width="3"></path>
<path d="M11.5242 21.5341H22.2342" stroke="#52F756" stroke-width="3"></path>
<path d="M13.2527 22.6865L13.2527 11.9765" stroke="#52F756" stroke-width="3"></path>
</svg>