<svg width="61" height="67" viewBox="0 0 61 67" fill="none" xmlns="http://www.w3.org/2000/svg">
<path fill-rule="evenodd" clip-rule="evenodd" d="M33.271 0C48.3398 0 60.5561 12.2163 60.5561 27.2852C60.556 32.3533 59.1713 37.0973 56.7641 41.1621H53.1987C55.944 37.2286 57.556 32.4458 57.5561 27.2852C57.5561 13.8731 46.683 3 33.271 3C19.8594 3.00056 8.9868 13.8735 8.98678 27.2852C8.98678 27.6658 8.99581 28.0445 9.01314 28.4209L3.1606 38.5596C2.71595 39.3302 3.27202 40.2933 4.16158 40.2939H10.143V51.5693C10.1431 53.4849 11.6964 55.0374 13.6118 55.0381H21.7075V61.9766H33.0727V64.9766H18.7075V58.0381H13.6118C10.0399 58.0374 7.14318 55.142 7.14303 51.5693V43.2939H4.16158C0.96182 43.2932 -1.03622 39.8296 0.562948 37.0596L5.99068 27.6553C5.98901 27.5322 5.98678 27.4088 5.98678 27.2852C5.9868 12.2167 18.2024 0.000555381 33.271 0Z" fill="#1B1F23"></path>
<path d="M37.046 37.1229V30.8269H43.342V25.4303" stroke="#52F756" stroke-width="2.14763"></path>
<path d="M21.8043 22.2822V26.7794H27.6506V37.1228" stroke="#52F756" stroke-width="2.14763"></path>
<circle cx="21.8042" cy="20.0337" r="2.69829" stroke="#52F756" stroke-width="2.14763"></circle>
<path d="M32.5424 19.1343V37.1229" stroke="#52F756" stroke-width="2.14763"></path>
<circle cx="32.5424" cy="16.4361" r="2.69829" stroke="#52F756" stroke-width="2.14763"></circle>
<circle cx="43.342" cy="22.7322" r="2.69829" stroke="#52F756" stroke-width="2.14763"></circle>
<path fill-rule="evenodd" clip-rule="evenodd" d="M48.1342 40.0114C48.715 40.0114 49.1859 40.4823 49.1859 41.0631V43.7994C49.1859 44.2485 49.474 44.6431 49.8851 44.8239C50.6163 45.1453 51.2971 45.5602 51.9125 46.0533C52.2765 46.3449 52.7819 46.4104 53.1859 46.1774L55.6156 44.775C56.1185 44.4849 56.7618 44.6579 57.0521 45.1608L58.6976 48.0094C58.988 48.5125 58.815 49.1556 58.3119 49.4459L55.7943 50.899C55.4004 51.1263 55.203 51.5806 55.2592 52.0319C55.3051 52.4011 55.3285 52.7772 55.3285 53.1588C55.3285 53.5397 55.3051 53.9153 55.2592 54.2838C55.203 54.7348 55.3998 55.1884 55.7933 55.4156L58.3129 56.8707C58.8156 57.1613 58.988 57.8044 58.6976 58.3073L57.0521 61.1559C56.7617 61.6588 56.1185 61.8318 55.6156 61.5416L53.1869 60.1383C52.7827 59.9049 52.2767 59.9715 51.9125 60.2633C51.2972 60.7564 50.6162 61.1705 49.8851 61.4918C49.474 61.6725 49.1859 62.0671 49.1859 62.5162V65.2526C49.1859 65.8334 48.715 66.3043 48.1342 66.3043H44.8441C44.2634 66.3042 43.7924 65.8333 43.7924 65.2526V62.7272C43.7923 62.2547 43.475 61.8462 43.0326 61.6803C42.2039 61.3697 41.4323 60.9417 40.7386 60.4166C40.3758 60.1421 39.8837 60.0856 39.4896 60.3131L37.3636 61.5406C36.8606 61.8312 36.2176 61.6589 35.9271 61.1559L34.2816 58.3073C33.9912 57.8043 34.1635 57.1603 34.6664 56.8698L36.7006 55.6949C37.1042 55.4617 37.3002 54.9908 37.2299 54.5299C37.1617 54.0828 37.1254 53.6249 37.1254 53.1588C37.1254 52.6921 37.1623 52.2335 37.2308 51.7858C37.3014 51.3248 37.1054 50.8539 36.7015 50.6207L34.6664 49.4469C34.1633 49.1565 33.9911 48.5125 34.2816 48.0094L35.9271 45.1608C36.2176 44.6578 36.8606 44.4856 37.3636 44.776L39.4896 46.0026C39.8837 46.2301 40.3758 46.1737 40.7386 45.899C41.4323 45.374 42.2039 44.946 43.0326 44.6354C43.475 44.4694 43.7923 44.061 43.7924 43.5885V41.0631C43.7924 40.4824 44.2634 40.0115 44.8441 40.0114H48.1342ZM46.2933 47.4274C43.1284 47.4274 40.5629 49.9939 40.5629 53.1588C40.5631 56.3235 43.1286 58.8893 46.2933 58.8893C49.458 58.8892 52.0235 56.3234 52.0238 53.1588C52.0238 49.994 49.4582 47.4275 46.2933 47.4274Z" fill="#1B1F23"></path>
</svg>