<svg width="89" height="89" viewBox="0 0 89 89" fill="none" xmlns="http://www.w3.org/2000/svg">
<path d="M56.5713 56.5713H12V12H56.5713V56.5713ZM15 53.5713H53.5713V15H15V53.5713Z" fill="#1B1F23"></path>
<mask id="path-2-inside-1_139_160" fill="white">
<path d="M22 22H66.5714V66.5714H22V22Z"></path>
</mask>
<path d="M66.5714 66.5714V69.5714H69.5714V66.5714H66.5714ZM66.5714 22H63.5714V66.5714H66.5714H69.5714V22H66.5714ZM66.5714 66.5714V63.5714H22V66.5714V69.5714H66.5714V66.5714Z" fill="#52F756" mask="url(#path-2-inside-1_139_160)"></path>
<mask id="path-4-inside-2_139_160" fill="white">
<path d="M32 32H76.5714V76.5714H32V32Z"></path>
</mask>
<path d="M76.5714 76.5714V79.5714H79.5714V76.5714H76.5714ZM76.5714 32H73.5714V76.5714H76.5714H79.5714V32H76.5714ZM76.5714 76.5714V73.5714H32V76.5714V79.5714H76.5714V76.5714Z" fill="#1B1F23" mask="url(#path-4-inside-2_139_160)"></path>
</svg>