<svg width="89" height="89" viewBox="0 0 89 89" fill="none" xmlns="http://www.w3.org/2000/svg">
<mask id="path-1-inside-1_139_55" fill="white">
<path d="M20 20H80V80H20V20Z"></path>
</mask>
<path d="M80 80V83H83V80H80ZM80 20H77V80H80H83V20H80ZM80 80V77H20V80V83H80V80Z" fill="#1B1F23" mask="url(#path-1-inside-1_139_55)"></path>
<path d="M70 70H10V10H70V70ZM13 67H67V13H13V67Z" fill="#1B1F23"></path>
<path fill-rule="evenodd" clip-rule="evenodd" d="M42.6929 22C43.5101 22.0001 44.1723 22.6632 44.1723 23.4805V27.3281C44.1725 27.96 44.5783 28.514 45.1567 28.7686C46.1858 29.2215 47.1432 29.8072 48.0093 30.502C48.5214 30.9128 49.2336 31.005 49.8022 30.6768L53.2202 28.7041C53.928 28.2955 54.833 28.5383 55.2417 29.2461L57.5561 33.2549C57.9649 33.9628 57.7221 34.8677 57.0141 35.2764L53.4722 37.3203C52.9182 37.6401 52.6415 38.2793 52.7202 38.9141C52.7847 39.4336 52.8178 39.9631 52.8179 40.5C52.8179 41.0365 52.7847 41.5658 52.7202 42.085C52.6413 42.7196 52.9184 43.3579 53.4722 43.6777L57.0151 45.7246C57.7227 46.1334 57.9657 47.0383 57.5571 47.7461L55.2417 51.7549C54.833 52.4626 53.928 52.7054 53.2202 52.2969L49.8022 50.3232C49.2336 49.9949 48.5215 50.0872 48.0093 50.498C47.1433 51.1928 46.1858 51.7786 45.1567 52.2314C44.5783 52.486 44.1725 53.0399 44.1723 53.6719V57.5205C44.1723 58.3378 43.5101 58.9999 42.6929 59H38.063C37.2456 59 36.5826 58.3378 36.5825 57.5205V53.9688C36.5824 53.3036 36.135 52.7287 35.5122 52.4951C34.346 52.0576 33.2608 51.4543 32.2847 50.7148C31.7742 50.3282 31.0814 50.2482 30.5268 50.5684L27.5356 52.2959C26.8278 52.7047 25.9219 52.4628 25.5132 51.7549L23.1987 47.7461C22.79 47.0383 23.0329 46.1334 23.7407 45.7246L26.602 44.0713C27.1702 43.7432 27.4455 43.0813 27.3472 42.4326C27.2516 41.8025 27.2016 41.1568 27.2016 40.5C27.2017 39.8431 27.2516 39.1976 27.3472 38.5674C27.4454 37.9187 27.1701 37.2569 26.602 36.9287L23.7407 35.2764C23.0328 34.8677 22.7901 33.9627 23.1987 33.2549L25.5141 29.2461C25.9229 28.5383 26.8278 28.2955 27.5356 28.7041L30.5268 30.4316C31.0814 30.7518 31.7742 30.6717 32.2847 30.2852C33.2608 29.5459 34.3461 28.9432 35.5122 28.5059C36.1349 28.2723 36.5824 27.6973 36.5825 27.0322V23.4805C36.5825 22.6631 37.2456 22 38.063 22H42.6929ZM40.102 32.4365C35.6485 32.4365 32.0378 36.0465 32.0376 40.5C32.0376 44.9537 35.6483 48.5645 40.102 48.5645C44.5557 48.5644 48.1665 44.9537 48.1665 40.5C48.1662 36.0465 44.5555 32.4366 40.102 32.4365Z" fill="#52F756"></path>
</svg>