<svg width="77" height="48" viewBox="0 0 77 48" fill="none" xmlns="http://www.w3.org/2000/svg">
<rect x="22" y="20.0586" width="53" height="26" stroke="#1B1F23" stroke-width="3"></rect>
<rect x="55" y="28.0586" width="5" height="10" fill="#52F756"></rect>
<rect x="64" y="28.0586" width="5" height="10" fill="#52F756"></rect>
<circle cx="33.1357" cy="33.0586" r="5" fill="#52F756"></circle>
<path d="M23.5 0C33.585 2.36696e-05 42.1845 6.35329 45.5186 15.2754H42.2822C39.1132 8.0485 31.8967 3.00002 23.5 3C12.1782 3 3.00003 12.1782 3 23.5C3.00007 31.4281 7.50227 38.3016 14.0879 41.7119V30.2061H17.0889V44.2051H17.0879L17.0869 47.1904L0.103516 47.1914V44.1904L11.9824 44.1914L12.1123 44.0596C4.8892 40.0504 6.69048e-05 32.3467 0 23.5C3.04609e-05 10.5213 10.5213 -5.67317e-07 23.5 0Z" fill="#1B1F23"></path>
</svg>