<svg width="61" height="67" viewBox="0 0 61 67" fill="none" xmlns="http://www.w3.org/2000/svg">
<path d="M33.271 0C48.3397 0.000139162 60.5561 12.2164 60.5562 27.2852C60.5561 32.3533 59.1707 37.0973 56.7632 41.1621H53.1987C55.9441 37.2287 57.5561 32.4458 57.5562 27.2852C57.5561 13.8732 46.6829 3.00014 33.271 3C19.8591 3.00017 8.98684 13.8732 8.98682 27.2852C8.98682 27.6658 8.99585 28.0445 9.01318 28.4209L3.16064 38.5596C2.71557 39.3305 3.27153 40.2938 4.16162 40.2939H10.1431V51.5693C10.1431 53.4851 11.6961 55.0378 13.6118 55.0381H21.7075V61.9766H33.0718V64.9766H18.7075V58.0381H13.6118C10.0398 58.0376 7.14322 55.1421 7.14307 51.5693V43.2939H4.16162C0.961665 43.2934 -1.03633 39.8297 0.562988 37.0596H0.562012L5.99072 27.6533C5.98907 27.5309 5.98682 27.4081 5.98682 27.2852C5.98684 12.2165 18.2022 0.000187412 33.271 0Z" fill="#F6F8FA"></path>
<path d="M37.0449 37.1229V30.8269H43.3409V25.4303" stroke="#52F756" stroke-width="2.14763"></path>
<path d="M21.8032 22.2822V26.7794H27.6495V37.1228" stroke="#52F756" stroke-width="2.14763"></path>
<circle cx="21.8033" cy="20.0337" r="2.69829" stroke="#52F756" stroke-width="2.14763"></circle>
<path d="M32.5413 19.1343V37.1229" stroke="#52F756" stroke-width="2.14763"></path>
<circle cx="32.5413" cy="16.4361" r="2.69829" stroke="#52F756" stroke-width="2.14763"></circle>
<circle cx="43.3411" cy="22.7322" r="2.69829" stroke="#52F756" stroke-width="2.14763"></circle>
<path fill-rule="evenodd" clip-rule="evenodd" d="M48.1338 40.0114C48.7146 40.0114 49.1855 40.4823 49.1855 41.0631V43.7994C49.1855 44.2486 49.4736 44.6431 49.8848 44.8239C50.6157 45.1452 51.2959 45.5603 51.9111 46.0533C52.2752 46.3451 52.7814 46.4106 53.1855 46.1774L55.6142 44.775C56.1172 44.4847 56.7603 44.6578 57.0508 45.1608L58.6963 48.0094C58.9867 48.5124 58.8144 49.1555 58.3115 49.4459L55.793 50.899C55.3991 51.1263 55.2017 51.5806 55.2578 52.0319C55.3037 52.4011 55.3281 52.7772 55.3281 53.1588C55.3281 53.5397 55.3037 53.9153 55.2578 54.2838C55.2017 54.7348 55.3994 55.1884 55.793 55.4156L58.3115 56.8707C58.8145 57.1612 58.9867 57.8042 58.6963 58.3073L57.0508 61.1559C56.7603 61.6589 56.1173 61.8321 55.6142 61.5416L53.1855 60.1383C52.7814 59.905 52.2753 59.9715 51.9111 60.2633C51.296 60.7562 50.6156 61.1705 49.8848 61.4918C49.4736 61.6725 49.1855 62.0671 49.1855 62.5162V65.2526C49.1855 65.8334 48.7146 66.3043 48.1338 66.3043H44.8437C44.2629 66.3043 43.792 65.8334 43.792 65.2526V62.7272C43.7919 62.2546 43.4738 61.8462 43.0312 61.6803C42.2026 61.3698 41.4319 60.9417 40.7383 60.4166C40.3753 60.1419 39.8824 60.0854 39.4883 60.3131L37.3633 61.5406C36.8602 61.8312 36.2163 61.6589 35.9258 61.1559L34.2803 58.3073C33.9898 57.8043 34.1621 57.1603 34.665 56.8698L36.7002 55.6949C37.1038 55.4617 37.2998 54.9907 37.2295 54.5299C37.1613 54.0828 37.125 53.6249 37.125 53.1588C37.125 52.6921 37.1609 52.2335 37.2295 51.7858C37.3 51.3248 37.1041 50.8539 36.7002 50.6207L34.666 49.4469C34.1629 49.1565 33.9907 48.5125 34.2812 48.0094L35.9258 45.1608C36.2162 44.6578 36.8603 44.4856 37.3633 44.776L39.4883 46.0026C39.8823 46.2301 40.3745 46.1736 40.7373 45.899C41.431 45.3739 42.2025 44.946 43.0312 44.6354C43.4739 44.4695 43.7919 44.0612 43.792 43.5885V41.0631C43.792 40.4823 44.2629 40.0114 44.8437 40.0114H48.1338ZM46.292 47.4274C43.1272 47.4275 40.5615 49.994 40.5615 53.1588C40.5618 56.3234 43.1273 58.8891 46.292 58.8893C49.4567 58.8893 52.0222 56.3235 52.0224 53.1588C52.0224 49.9939 49.4569 47.4274 46.292 47.4274Z" fill="#F6F8FA"></path>
</svg>