<svg width="75" height="94" viewBox="0 0 75 94" fill="none" xmlns="http://www.w3.org/2000/svg">
<rect x="1.5" y="76.5" width="63" height="20" transform="rotate(-90 1.5 76.5)" stroke="#F6F8FA" stroke-width="3"></rect>
<rect x="7.86353" y="66.5" width="7.27273" height="7.27273" transform="rotate(-90 7.86353 66.5)" fill="#F6F8FA"></rect>
<rect x="7.86353" y="48.316" width="7.27273" height="7.27273" transform="rotate(-90 7.86353 48.316)" fill="#F6F8FA"></rect>
<rect x="7.86353" y="29.7727" width="7.27273" height="7.27273" transform="rotate(-90 7.86353 29.7727)" fill="#F6F8FA"></rect>
<rect x="27.5" y="92.5" width="63" height="20" transform="rotate(-90 27.5 92.5)" fill="#52F756" stroke="#F6F8FA" stroke-width="3"></rect>
<rect x="33.8635" y="82.5" width="7.27273" height="7.27273" transform="rotate(-90 33.8635 82.5)" fill="#F6F8FA"></rect>
<rect x="33.8635" y="64.316" width="7.27273" height="7.27273" transform="rotate(-90 33.8635 64.316)" fill="#F6F8FA"></rect>
<rect x="33.8635" y="45.7727" width="7.27273" height="7.27273" transform="rotate(-90 33.8635 45.7727)" fill="#F6F8FA"></rect>
<rect x="53.5" y="64.5" width="63" height="20" transform="rotate(-90 53.5 64.5)" stroke="#F6F8FA" stroke-width="3"></rect>
<rect x="59.8635" y="54.5" width="7.27273" height="7.27273" transform="rotate(-90 59.8635 54.5)" fill="#F6F8FA"></rect>
<rect x="59.8635" y="36.316" width="7.27273" height="7.27273" transform="rotate(-90 59.8635 36.316)" fill="#F6F8FA"></rect>
<rect x="59.8635" y="17.7727" width="7.27273" height="7.27273" transform="rotate(-90 59.8635 17.7727)" fill="#F6F8FA"></rect>
</svg>