<svg width="89" height="89" viewBox="0 0 89 89" fill="none" xmlns="http://www.w3.org/2000/svg">
<path d="M79.3096 78.3096L11 78.3096L11 10L79.3096 10L79.3096 78.3096ZM14 75.3096L76.3096 75.3096L76.3096 13L14 13L14 75.3096Z" fill="#F6F8FA"></path>
<path d="M72.3084 33.9857L69.3073 33.9857L69.308 22.1065L56.297 35.1175L54.1757 32.9962L67.1715 20.0004L55.3226 20.0011L55.3226 17L69.3225 17L69.3225 17.0014L72.3077 17.0021L72.3084 33.9857Z" fill="#52F756"></path>
<path d="M18 54.3228L21.001 54.3228L21.0003 66.2021L34.0114 53.1911L36.1327 55.3124L23.1368 68.3082L34.9857 68.3075L34.9857 71.3086L20.9858 71.3086L20.9858 71.3072L18.0007 71.3065L18 54.3228Z" fill="#52F756"></path>
</svg>