<svg width="118" height="92" viewBox="0 0 118 92" fill="none" xmlns="http://www.w3.org/2000/svg">
<path d="M2.7113 69.4052L24.2882 35L21.7498 60.2549H35.7113L12.1399 91L16.1289 69.4052H2.7113Z" stroke="#F6F8FA" stroke-width="3"></path>
<path d="M117.711 90H34.7113V87H117.711V90Z" fill="#F6F8FA"></path>
<path d="M59.0114 39.499L56.8912 41.6191L52.025 36.752V47.0352H49.025V36.7227L44.1305 41.6191L42.0114 39.499L49.0172 32.4932L50.5114 31L59.0114 39.499Z" fill="#52F756"></path>
<path d="M59.2631 89.3779H56.2631V54H44.7113V89.3779H41.7113L41.7113 51H59.2631V89.3779Z" fill="#F6F8FA"></path>
<path d="M85.0114 24.499L82.8912 26.6191L78.025 21.752V32.0352H75.025V21.7227L70.1305 26.6191L68.0114 24.499L75.0172 17.4932L76.5114 16L85.0114 24.499Z" fill="#52F756"></path>
<path d="M85.3039 87.9786H82.3039L82.2631 39.0352H70.7113L70.7521 87.9786H67.7521L67.7113 36.0352H85.2631L85.3039 87.9786Z" fill="#F6F8FA"></path>
<path d="M111.011 8.49902L108.891 10.6191L104.025 5.75195V16.0352H101.025V5.72266L96.1305 10.6191L94.0114 8.49902L101.017 1.49316L102.511 0L111.011 8.49902Z" fill="#52F756"></path>
<path d="M111.16 87.9036H108.16L108.263 23.0352H96.7112L96.6086 87.9036H93.6086L93.7112 20.0352H111.263L111.16 87.9036Z" fill="#F6F8FA"></path>
</svg>