<svg width="88" height="82" viewBox="0 0 88 82" fill="none" xmlns="http://www.w3.org/2000/svg">
<path d="M13 45.926C7.10284 48.594 3 54.5296 3 61.4231C3 70.8119 10.6112 78.4231 20 78.4231C29.3888 78.4231 37 70.8119 37 61.4231C37 60.3995 36.9097 59.3969 36.7363 58.4231H64.2578C64.8757 56.6756 66.5409 55.4231 68.5 55.4231C70.9853 55.4231 73 57.4378 73 59.9231C73 62.4084 70.9853 64.4231 68.5 64.4231C66.5409 64.4231 64.8757 63.1706 64.2578 61.4231H40C40 72.4688 31.0457 81.4231 20 81.4231C8.9543 81.4231 0 72.4688 0 61.4231C0 52.8401 5.40676 45.5204 13 42.6829V45.926Z" fill="#F6F8FA"></path>
<path d="M57.8087 75.3929C63.0677 79.166 70.2596 79.7514 76.2295 76.3046C84.3605 71.6102 87.1464 61.2132 82.4519 53.0822C77.7575 44.9512 67.3605 42.1653 59.2295 46.8598C58.343 47.3716 57.5199 47.9511 56.7633 48.5881L43.0025 24.7538C41.1802 25.0924 39.2629 24.2766 38.2834 22.58C37.0407 20.4277 37.7782 17.6755 39.9305 16.4329C42.0828 15.1902 44.8349 15.9277 46.0776 18.08C47.0572 19.7766 46.805 21.8449 45.6006 23.2538L57.7295 44.2617C67.2954 38.7388 79.5272 42.0163 85.05 51.5822C90.5729 61.1481 87.2954 73.3799 77.7295 78.9027C70.2964 83.1942 61.254 82.1717 55 77.0145L57.8087 75.3929Z" fill="#F6F8FA"></path>
<path d="M58.7414 21.6897C59.3795 15.2487 56.2905 8.72769 50.3205 5.28094C42.1896 0.586515 31.7925 3.37239 27.0981 11.5034C22.4037 19.6343 25.1896 30.0314 33.3205 34.7258C34.207 35.2376 35.1204 35.6607 36.0504 35.9975L22.2897 59.8318C23.4941 61.2406 23.7462 63.309 22.7667 65.0056C21.524 67.1579 18.7719 67.8954 16.6196 66.6527C14.4672 65.4101 13.7298 62.6579 14.9724 60.5056C15.952 58.8089 17.8693 57.9931 19.6916 58.3318L31.8205 37.3239C22.2547 31.801 18.9772 19.5692 24.5 10.0034C30.0229 0.437514 42.2547 -2.83999 51.8205 2.68286C59.2536 6.97435 62.8893 15.3166 61.55 23.3113L58.7414 21.6897Z" fill="#52F756"></path>
</svg>