<svg width="78" height="38" viewBox="0 0 78 38" fill="none" xmlns="http://www.w3.org/2000/svg">
<path d="M39.5588 21.4736C42.0325 21.5299 44.3152 21.7833 46.4065 22.2256C48.7964 22.7311 50.8655 23.4938 52.6223 24.5137C54.3789 25.5246 55.7176 26.7213 56.6272 28.0869C57.5456 29.4525 58.0001 30.961 58.0002 32.6104V37.4619H19.0002V32.6104C19.0003 30.961 19.4732 29.4526 20.4006 28.0869C21.2785 26.8068 22.509 25.6818 24.1067 24.7061L24.4309 24.5137C26.0696 23.5576 27.9994 22.8273 30.2034 22.3232L30.6477 22.2256C33.0377 21.7201 35.5982 21.4619 38.4875 21.4619L39.5588 21.4736ZM38.4875 24.4619C35.7807 24.4619 33.4305 24.703 31.2688 25.1602C29.1263 25.6133 27.3618 26.2771 25.9436 27.1045L25.9377 27.1074C24.4838 27.9515 23.5097 28.8576 22.8743 29.7842C22.2832 30.659 22.0003 31.5782 22.0002 32.6104V34.4619H55.0002V32.6104C55.0001 31.5503 54.7194 30.6264 54.1379 29.7617L54.1301 29.75C53.5285 28.8469 52.5703 27.9443 51.1262 27.1133L51.1165 27.1074C49.683 26.2753 47.9237 25.6124 45.7854 25.1602C43.6293 24.7041 41.2006 24.462 38.4875 24.4619ZM39.4114 0.0117188C44.3136 0.26034 48.2122 4.31436 48.2122 9.27832L48.1995 9.75586C47.9508 14.6579 43.8977 18.5565 38.9338 18.5566L38.4563 18.5439C33.7124 18.3033 29.9078 14.4998 29.6672 9.75586L29.6555 9.27832C29.6555 4.1543 33.8099 0.0002474 38.9338 0L39.4114 0.0117188ZM38.9338 3C35.4667 3.00025 32.6555 5.81115 32.6555 9.27832C32.6556 12.7454 35.4668 15.5564 38.9338 15.5566C42.401 15.5565 45.2121 12.7455 45.2122 9.27832C45.2122 5.81106 42.4011 3.0001 38.9338 3Z" fill="#F6F8FA"></path>
<path d="M13.4746 24.7236C14.14 24.7237 14.8053 24.7422 15.4707 24.7871C16.1473 24.8322 16.8244 24.913 17.501 25.0303C16.8064 26.1489 16.292 27.3129 15.9492 28.5127C15.6155 29.7124 15.4443 30.9481 15.4443 32.2109V37.2803H0V32.9053C9.64347e-05 30.5148 1.2447 28.5569 3.73438 27.0234C6.2236 25.4902 9.47055 24.724 13.4746 24.7236ZM64.0283 24.7236C68.0336 24.7236 71.2722 25.4816 73.7529 26.9971H73.7441C76.2247 28.5125 77.4608 30.4788 77.4609 32.9053V37.2803H62.0166V32.2197C62.0166 30.8668 61.8547 29.5949 61.5391 28.4043C61.2233 27.2136 60.745 26.0857 60.1045 25.0303C60.8081 24.904 61.4756 24.8322 62.125 24.7871C62.7744 24.742 63.4059 24.7236 64.0283 24.7236ZM13.4727 9C15.1756 9.00103 16.6267 9.58696 17.8164 10.7676C19.0072 11.9493 19.6025 13.4473 19.6025 15.1162C19.6025 16.785 19.0157 18.219 17.834 19.4277C16.6613 20.6365 15.1459 21.2412 13.459 21.2412C11.7722 21.2412 10.3286 20.6372 9.12891 19.4375C7.92911 18.2287 7.33398 16.8026 7.33398 15.0977C7.33408 13.3929 7.938 11.9492 9.1377 10.7676C10.3454 9.58689 11.7877 9.00105 13.4727 9ZM64.0283 9C65.7602 9 67.2128 9.58602 68.3945 10.7676C69.5762 11.9402 70.163 13.4019 70.1631 15.0977C70.1631 16.7936 69.5673 18.2377 68.3945 19.4375C67.2128 20.6371 65.6883 21.2412 64.0195 21.2412C62.3506 21.2412 60.9071 20.6365 59.6982 19.4277C58.4897 18.219 57.8848 16.839 57.8848 15.1162C57.8848 13.3932 58.4894 11.9493 59.6982 10.7676C60.907 9.58594 62.2964 9.00004 64.0283 9Z" fill="#52F756"></path>
</svg>