<svg width="89" height="89" viewBox="0 0 89 89" fill="none" xmlns="http://www.w3.org/2000/svg">
<path d="M20.8154 13C25.1317 13.0002 28.6316 16.4992 28.6318 20.8154C28.6316 25.1317 25.1317 28.6316 20.8154 28.6318C16.4992 28.6316 13.0002 25.1317 13 20.8154C13.0002 16.4992 16.4992 13.0002 20.8154 13ZM20.8154 16C18.156 16.0002 16.0002 18.156 16 20.8154C16.0002 23.4748 18.156 25.6316 20.8154 25.6318C23.4748 25.6316 25.6316 23.4748 25.6318 20.8154C25.6316 18.156 23.4748 16.0002 20.8154 16Z" fill="#F6F8FA"></path>
<path d="M20.8154 60C25.1317 60.0002 28.6316 63.4992 28.6318 67.8154C28.6316 72.1317 25.1317 75.6316 20.8154 75.6318C16.4992 75.6316 13.0002 72.1317 13 67.8154C13.0002 63.4992 16.4992 60.0002 20.8154 60ZM20.8154 63C18.156 63.0002 16.0002 65.156 16 67.8154C16.0002 70.4748 18.156 72.6316 20.8154 72.6318C23.4748 72.6316 25.6316 70.4748 25.6318 67.8154C25.6316 65.156 23.4748 63.0002 20.8154 63Z" fill="#F6F8FA"></path>
<rect x="19" y="26" width="3" height="37" fill="#F6F8FA"></rect>
<path d="M51.0537 21.0264L50.7969 21.2832L50.7979 21.2842L43.0273 29.0547L40.9062 26.9336L45.3027 22.5371H27V19.5371H45.3223L40.9062 15.1211L43.0273 13L51.0537 21.0264Z" fill="#F6F8FA"></path>
<path d="M65.2383 75.6318C60.922 75.6316 57.4221 72.1327 57.4219 67.8164C57.4221 63.5001 60.922 60.0002 65.2383 60C69.5545 60.0002 73.0535 63.5002 73.0537 67.8164C73.0535 72.1327 69.5545 75.6316 65.2383 75.6318ZM65.2383 72.6318C67.8977 72.6316 70.0535 70.4758 70.0537 67.8164C70.0535 65.157 67.8977 63.0002 65.2383 63C62.5789 63.0002 60.4221 65.157 60.4219 67.8164C60.4221 70.4758 62.5789 72.6316 65.2383 72.6318Z" fill="#52F756"></path>
<path d="M65.2383 28.6318C60.922 28.6316 57.4221 25.1327 57.4219 20.8164C57.4221 16.5001 60.922 13.0002 65.2383 13C69.5545 13.0002 73.0535 16.5002 73.0537 20.8164C73.0535 25.1327 69.5545 28.6316 65.2383 28.6318ZM65.2383 25.6318C67.8977 25.6316 70.0535 23.4758 70.0537 20.8164C70.0535 18.157 67.8977 16.0002 65.2383 16C62.5789 16.0002 60.4221 18.157 60.4219 20.8164C60.4221 23.4758 62.5789 25.6316 65.2383 25.6318Z" fill="#52F756"></path>
<rect x="67.0537" y="62.6318" width="3" height="37" transform="rotate(-180 67.0537 62.6318)" fill="#52F756"></rect>
<path d="M35 67.6055L35.2568 67.3486L35.2559 67.3477L43.0264 59.5771L45.1475 61.6982L40.751 66.0947L59.0537 66.0947L59.0537 69.0947L40.7314 69.0947L45.1475 73.5107L43.0264 75.6318L35 67.6055Z" fill="#52F756"></path>
</svg>