<svg width="89" height="89" viewBox="0 0 89 89" fill="none" xmlns="http://www.w3.org/2000/svg">
<g clip-path="url(#clip0_139_140)">
<path d="M60.984 9.64215H34.048V36.5409H60.984V9.64215Z" stroke="#52F756" stroke-width="3" stroke-miterlimit="10"></path>
<path d="M23.2714 44.3467H9.64444V75.7888H23.2714V44.3467Z" stroke="#1B1F23" stroke-width="3" stroke-miterlimit="10"></path>
<path d="M23.2714 44.3467V70.1617L54.2856 79.2703L79.7416 70.4682L76.2006 62.8923L60.6989 62.7391L57.2675 53.6195L31.8664 44.3467H23.2714Z" stroke="#1B1F23" stroke-width="3" stroke-miterlimit="10"></path>
<path d="M76.2006 62.8923L50.0649 62.6186L39.8036 59.4875" stroke="#1B1F23" stroke-width="3" stroke-miterlimit="10"></path>
<path d="M46.5019 15.6963L51.6764 29.3373H49.2207L48.0367 26.2171H42.1387L40.9766 29.3373H38.5647L43.7392 15.6963H46.5019ZM42.939 24.1042H47.2364L45.0658 18.4004L42.939 24.1042Z" fill="#1B1F23" stroke="#1B1F23" stroke-width="0.75" stroke-miterlimit="10"></path>
<path d="M55.6012 29.3373H53.1674V15.6963H55.6012V29.3373Z" fill="#1B1F23" stroke="#1B1F23" stroke-width="0.75" stroke-miterlimit="10"></path>
</g>
<defs>
<clipPath id="clip0_139_140">
<rect width="74" height="73" fill="white" transform="translate(8 8)"></rect>
</clipPath>
</defs>
</svg>