<svg width="89" height="89" viewBox="0 0 89 89" fill="none" xmlns="http://www.w3.org/2000/svg">
<circle cx="66" cy="65" r="12" fill="#52F756"></circle>
<path d="M65.3308 72.2752L59.5385 68.9311V62.2428L66.0028 65.9747C65.5565 67.0333 65.3314 68.3143 65.3314 69.8507V72.2758L65.3308 72.2752Z" fill="#F6F8FA"></path>
<path d="M59.7461 61.8826L65.5385 58.5385L71.3308 61.8826C68.7447 62.5754 67.0721 63.795 66.1761 65.5954L59.7456 61.8826H59.7461Z" fill="#F6F8FA"></path>
<path d="M65.7461 69.8502V72.2753L67.1317 71.475V69.8502C67.1317 69.6025 67.1385 69.3628 67.1514 69.132C67.1644 68.9007 67.1847 68.6784 67.2105 68.4651C67.237 68.2518 67.2696 68.047 67.3085 67.8517C67.3473 67.6564 67.3929 67.4701 67.4441 67.2928C67.4953 67.1155 67.5527 66.9472 67.6152 66.788C67.6777 66.6287 67.7469 66.4773 67.8212 66.3332C67.8955 66.1892 67.9754 66.053 68.0621 65.923C68.1482 65.7929 68.241 65.6686 68.3406 65.5493C68.4403 65.4299 68.5466 65.3157 68.662 65.2054C68.7774 65.0951 68.9001 64.9887 69.0329 64.8857C69.1657 64.7827 69.3075 64.6837 69.4595 64.5874C69.612 64.4918 69.7741 64.3995 69.948 64.3105C70.1213 64.2222 70.3054 64.1372 70.5001 64.0562C70.6948 63.9751 70.9008 63.8986 71.1169 63.8265C71.2531 63.7809 71.3938 63.737 71.5385 63.6948V62.2574C71.5047 62.2665 71.4715 62.2749 71.4383 62.2839C71.176 62.3542 70.9222 62.4302 70.6774 62.5124C70.4326 62.5946 70.1962 62.6824 69.9694 62.7763C69.7426 62.8703 69.5248 62.9705 69.3171 63.0769C69.1089 63.1833 68.9102 63.2958 68.7217 63.4146C68.5326 63.5333 68.353 63.6588 68.1836 63.7905C68.0137 63.9222 67.8533 64.0607 67.7024 64.2053C67.5516 64.3505 67.4098 64.5019 67.2775 64.66C67.1453 64.8187 67.022 64.9836 66.9078 65.1564C66.7935 65.3292 66.6883 65.5087 66.5915 65.6956C66.4947 65.8824 66.4069 66.0772 66.3269 66.2786C66.2476 66.4807 66.1761 66.6901 66.1136 66.9067C66.0512 67.1234 65.9966 67.3474 65.9504 67.5793C65.9043 67.8111 65.866 68.0492 65.8356 68.2952C65.8052 68.5405 65.7833 68.7932 65.7681 69.0527C65.7535 69.3121 65.7461 69.5778 65.7461 69.8496V69.8502Z" fill="#F6F8FA"></path>
<path d="M73.4209 27.6963L73.4199 52.7549C72.4781 52.2425 71.4733 51.8312 70.4199 51.5361V31.1064L45.8301 44.4033V75.4014L53.1523 71.1738C53.5475 72.1023 54.0371 72.9807 54.6084 73.7979L44.3301 79.7324L15.2402 62.9375V27.6963L44.3301 11.9658L73.4209 27.6963ZM18.2402 61.2051L42.8301 75.4014V44.4033L18.2402 31.1064V61.2051ZM19.8945 28.5898L44.3301 41.8037L68.7656 28.5898L44.3301 15.376L19.8945 28.5898Z" fill="#1B1F23"></path>
</svg>