<svg width="89" height="89" viewBox="0 0 89 89" fill="none" xmlns="http://www.w3.org/2000/svg">
<rect x="11" y="74" width="63" height="3" fill="#1B1F23"></rect>
<rect x="44" y="62" width="14" height="3" transform="rotate(90 44 62)" fill="#1B1F23"></rect>
<path d="M43.5869 19L43.5869 17.5H43.5869V19ZM61.3652 38.8457H59.8652V40.3457H61.3652V38.8457ZM62.1924 38.8457L62.1924 37.3457H62.1924V38.8457ZM73.7695 50.4229H75.2695V50.4228L73.7695 50.4229ZM62.1924 62V63.5H62.1924L62.1924 62ZM27.875 62L27.875 63.5H27.875V62ZM14.2305 48.3555L12.7305 48.3554V48.3555H14.2305ZM25.9111 34.8525L26.1252 36.3372L27.2778 36.171L27.4025 35.0132L25.9111 34.8525ZM43.5869 19L43.5869 20.5C52.5772 20.5002 59.8652 27.7888 59.8652 36.7793H61.3652H62.8652C62.8652 26.1321 54.2342 17.5002 43.5869 17.5L43.5869 19ZM61.3652 36.7793H59.8652V38.8457H61.3652H62.8652V36.7793H61.3652ZM61.3652 38.8457V40.3457H62.1924V38.8457V37.3457H61.3652V38.8457ZM62.1924 38.8457L62.1924 40.3457C67.7576 40.3457 72.2694 44.8576 72.2695 50.4229L73.7695 50.4229L75.2695 50.4228C75.2694 43.2008 69.4145 37.3458 62.1924 37.3457L62.1924 38.8457ZM73.7695 50.4229H72.2695C72.2695 55.9881 67.7577 60.5 62.1924 60.5L62.1924 62L62.1924 63.5C69.4145 63.5 75.2695 57.645 75.2695 50.4229H73.7695ZM62.1924 62V60.5H27.875V62V63.5H62.1924V62ZM27.875 62L27.875 60.5C21.1679 60.5 15.7305 55.0625 15.7305 48.3555H14.2305H12.7305C12.7305 56.7194 19.5111 63.5 27.875 63.5L27.875 62ZM14.2305 48.3555L15.7305 48.3555C15.7306 42.2436 20.2476 37.1845 26.1252 36.3372L25.9111 34.8525L25.6971 33.3679C18.3649 34.4249 12.7306 40.7304 12.7305 48.3554L14.2305 48.3555ZM25.9111 34.8525L27.4025 35.0132C28.2816 26.8539 35.1933 20.5 43.5869 20.5V19V17.5C33.6443 17.5 25.4613 25.0253 24.4198 34.6919L25.9111 34.8525Z" fill="#1B1F23"></path>
<circle cx="42.5" cy="75.5" r="3.5" fill="#52F756"></circle>
<rect x="11" y="72" width="7" height="7" fill="#52F756"></rect>
<rect x="69" y="72" width="7" height="7" fill="#52F756"></rect>
</svg>