<svg width="89" height="89" viewBox="0 0 89 89" fill="none" xmlns="http://www.w3.org/2000/svg">
<path d="M43.6016 23H22V44.6016H43.6016V23Z" fill="#1B1F23"></path>
<path d="M65 39.051H50.9377V66.0266H65V39.051Z" fill="#1B1F23"></path>
<path d="M65 23H50.9377V31.8298H65V23Z" fill="#52F756"></path>
<path d="M43.6016 51.8315H22V66.0087H43.6016V51.8315Z" fill="#52F756"></path>
<rect x="12" y="13" width="64" height="64" stroke="#1B1F23" stroke-width="3"></rect>
<path d="M85 33L76 33" stroke="#1B1F23" stroke-width="3"></path>
<path d="M85 45L76 45" stroke="#1B1F23" stroke-width="3"></path>
<path d="M85 57L76 57" stroke="#1B1F23" stroke-width="3"></path>
<path d="M12 33L3 33" stroke="#1B1F23" stroke-width="3"></path>
<path d="M12 45L3 45" stroke="#1B1F23" stroke-width="3"></path>
<path d="M12 57L3 57" stroke="#1B1F23" stroke-width="3"></path>
<path d="M56 13L56 4" stroke="#1B1F23" stroke-width="3"></path>
<path d="M44 13L44 4" stroke="#1B1F23" stroke-width="3"></path>
<path d="M32 13L32 4" stroke="#1B1F23" stroke-width="3"></path>
<path d="M56 86L56 77" stroke="#1B1F23" stroke-width="3"></path>
<path d="M44 86L44 77" stroke="#1B1F23" stroke-width="3"></path>
<path d="M32 86L32 77" stroke="#1B1F23" stroke-width="3"></path>
</svg>