<svg width="118" height="75" viewBox="0 0 118 75" fill="none" xmlns="http://www.w3.org/2000/svg">
<path d="M59 9C59 11.2941 59 16.3059 59 18" stroke="#1B1F23" stroke-width="3.98"></path>
<path d="M25 24C26.6251 25.6192 30.1755 29.1566 31.3756 30.3523" stroke="#1B1F23" stroke-width="3.98"></path>
<path d="M118 43V64H90V61H115V43.9424L86.4355 3H31.5645L3 43.9424V61H28V64H0V43L30 0H88L118 43Z" fill="#1B1F23"></path>
<path d="M95.0891 24.3994L64.0912 55.7801L61.9568 53.6713L92.9548 22.2907L95.0891 24.3994Z" fill="#1B1F23"></path>
<rect x="92.9546" y="22.2908" width="3" height="9" transform="rotate(44.6483 92.9546 22.2908)" fill="#52F756"></rect>
<path d="M50 61.2745L62.4231 41L60.9615 55.8824H69L55.4286 74L57.7253 61.2745H50Z" stroke="#52F756" stroke-width="3.98"></path>
</svg>